<svg width="388" height="299" viewBox="0 0 388 299" fill="none" xmlns="http://www.w3.org/2000/svg">
<path d="M386 85.1C383.9 72.8 373.2 63.6 362.1 58.6C355.2 55.4 347 53.5 346.6 45.2C346.2 37.2 346.5 30.8 344.5 22.6C342.1 12.6 334.8 7.00003 327.7 4.00003C319.9 0.400025 313.7 -0.799969 301.9 2.60003C284.7 7.50003 270.5 22.6 264.1 38.6C261.7 44.9 260.2 52.8 259.4 59.1C259.2 61.7 259.3 67.6 259.3 67.6C259.3 67.6 255.5 64.4 253.1 62.7C251.8 61.7 250.2 60.6 248.7 59.7C241 54.9 232.4 51.3 223.6 49.3C216.7 47.9 209.8 45.6 202.9 45.8C196.4 45.9 190 45.9 183.7 46.9C174.4 48.3 164.7 50.3 156.2 54C147.2 58.5 138.3 63.6 130.3 69.6C121.3 76.1 114.3 84 107.3 92.5C100 102 94.4 112.5 91.2 123.7C89.1 132.2 87.9 140.4 87.3 149.2C86.8 155.7 87.8 160 87.8 162.9C85.5 161.6 77.7 159.9 75.2 159.2C69.3 157.5 65.6 157.9 61.8 157.4C56.7 156.9 42.9 156.8 35.6 159.8C23 165 11 173.7 4.99998 186C1.59998 192.8 0.499968 199.9 0.799968 207.6C0.899968 213.4 1.99998 218.6 3.99998 223.7C7.89998 235.4 13.8 241.3 23.2 245.8C26.6 247.8 33.2 248.6 33.2 248.6C33.2 248.6 32.9 255.2 32.8 261C33.1 266.2 33.5 270.6 34.4 274.7C36 282.7 41 289.5 48.1 293.3C53.3 296.3 63.8 300 77.4 297.5C91.5 294.8 103 285.5 111.4 274.2C116.2 267.4 119.7 261 122.1 253.2C123.2 249.8 124.6 244.9 125.8 241.1C126.6 238.4 127.3 231.1 127.3 231.1C127.3 231.1 131.9 235.4 134.1 236.8C136.4 238.2 138.8 239.7 141.1 241C148.9 245.7 158.2 247.6 166.7 249.7C176.7 252.3 186.8 252.5 196.9 251.9C206.3 251.3 220.3 247.1 229.8 241.9C258.7 226.1 284.9 202.3 293.9 170.3C295.4 165 296.9 157.8 297 152.1C297.1 144.6 297 136.4 297 136.4C297 136.4 303.3 140.3 305.5 141.1C309.6 142.8 314.6 144 319.2 145.1C327.2 146.7 336 146.3 344.2 145.6C357.9 142.9 371.6 134.1 378.2 121.1C388.9 99.5 388.1 97.3 386 85.1Z" fill="#324063"/>
<mask id="mask0_22_10" style="mask-type:luminance" maskUnits="userSpaceOnUse" x="268" y="10" width="110" height="127">
<path d="M268.9 72.6C268.3 67.3 269.3 58.8 269.5 57.4C270.3 51.8 271.6 46.8 273.3 42.1C279 27.9 291.6 15.8 304.6 12.1C308.4 11 311.5 10.5 314 10.5C316.9 10.5 319.5 11.2 323.5 13L323.7 13.1C329.7 15.7 333.4 19.6 334.7 24.9C336 30.2 336.1 34.6 336.3 40.2C336.4 42 336.4 43.8 336.5 45.7C337.2 59 348.2 63.6 354.8 66.4C355.8 66.8 356.8 67.2 357.8 67.7C367.9 72.4 374.7 79.5 376 86.9L376.2 88.1C377.9 97.8 378.1 98.8 369 116.7C364.4 125.9 354 133.3 342.5 135.7C338.4 136.1 334.9 136.3 331.7 136.3C327.7 136.3 324.2 136 321 135.4C316.8 134.4 312.4 133.4 309.1 132L308.9 131.9L308.7 131.8C307.7 131.4 304.3 129.4 301.9 128C301.9 128 296 125.1 293 120.6C290 116.1 280.5 100.1 276.8 92.6C273.6 85.4 269.5 77.9 268.9 72.6Z" fill="white"/>
</mask>
<g mask="url(#mask0_22_10)">
<path d="M308.1 8.5C323.3 5.7 336.4 15.8 338 31C339.6 50.1 337 55.3 356.7 63.7C367.5 69.2 378.6 78.2 379.6 91C380.5 98.2 377.8 104.8 374.9 111.1C369.9 122.1 360.4 130.5 349.3 134.6C336 138 321.9 135.3 309.1 131.2C302.3 128.9 294.2 127.8 291.1 120.6C288.6 115.3 286.7 111.7 283.9 106.5C282.1 102.9 278 98.5 276 94.9C271.6 87.6 268 78 267.7 69.2C266.5 57.3 271.1 44.4 276.7 33.9C283.1 21.5 293.6 10.2 308 8.4L308.1 8.5Z" fill="#3EF3FA"/>
</g>
<mask id="mask1_22_10" style="mask-type:luminance" maskUnits="userSpaceOnUse" x="268" y="10" width="110" height="127">
<path d="M268.9 72.6C268.3 67.3 269.3 58.8 269.5 57.4C270.3 51.8 271.6 46.8 273.3 42.1C279 27.9 291.6 15.8 304.6 12.1C308.4 11 311.5 10.5 314 10.5C316.9 10.5 319.5 11.2 323.5 13L323.7 13.1C329.7 15.7 333.4 19.6 334.7 24.9C336 30.2 336.1 34.6 336.3 40.2C336.4 42 336.4 43.8 336.5 45.7C337.2 59 348.2 63.6 354.8 66.4C355.8 66.8 356.8 67.2 357.8 67.7C367.9 72.4 374.7 79.5 376 86.9L376.2 88.1C377.9 97.8 378.1 98.8 369 116.7C364.4 125.9 354 133.3 342.5 135.7C338.4 136.1 334.9 136.3 331.7 136.3C327.7 136.3 324.2 136 321 135.4C316.8 134.4 312.4 133.4 309.1 132L308.9 131.9L308.7 131.8C307.7 131.4 304.3 129.4 301.9 128C301.9 128 296 125.1 293 120.6C290 116.1 280.5 100.1 276.8 92.6C273.6 85.4 269.5 77.9 268.9 72.6Z" fill="white"/>
</mask>
<g mask="url(#mask1_22_10)">
<path d="M282.5 98.2C284.1 98.1 286.5 99.4 288.1 99.3C291.8 99.2 317.4 110.5 320.9 111.2C325 112 329.8 110.8 333.9 111.2C336.2 111.7 339 112 341.2 113.2C343.7 114.6 346.3 112.7 349.2 112.9C353.7 113.2 356.9 116.1 362.4 111.4C365.9 108.4 371.2 108.6 374.7 106C375.6 105.2 377.2 104.6 377.3 105.9C374.7 120 361 132.8 347.3 136.3C343.4 137.2 337.2 137.1 332.4 137C327.4 137.1 322.5 135.7 317.5 134.5C310.2 132.7 301.7 130.3 295.7 125.7C290.6 121.3 287.7 118.3 285.2 112.2C284.4 109.2 274.6 98.4 277 96.7L282.5 98.2Z" fill="#18C2DD"/>
</g>
<mask id="mask2_22_10" style="mask-type:luminance" maskUnits="userSpaceOnUse" x="268" y="10" width="110" height="127">
<path d="M268.9 72.6C268.3 67.3 269.3 58.8 269.5 57.4C270.3 51.8 271.6 46.8 273.3 42.1C279 27.9 291.6 15.8 304.6 12.1C308.4 11 311.5 10.5 314 10.5C316.9 10.5 319.5 11.2 323.5 13L323.7 13.1C329.7 15.7 333.4 19.6 334.7 24.9C336 30.2 336.1 34.6 336.3 40.2C336.4 42 336.4 43.8 336.5 45.7C337.2 59 348.2 63.6 354.8 66.4C355.8 66.8 356.8 67.2 357.8 67.7C367.9 72.4 374.7 79.5 376 86.9L376.2 88.1C377.9 97.8 378.1 98.8 369 116.7C364.4 125.9 354 133.3 342.5 135.7C338.4 136.1 334.9 136.3 331.7 136.3C327.7 136.3 324.2 136 321 135.4C316.8 134.4 312.4 133.4 309.1 132L308.9 131.9L308.7 131.8C307.7 131.4 304.3 129.4 301.9 128C301.9 128 296 125.1 293 120.6C290 116.1 280.5 100.1 276.8 92.6C273.6 85.4 269.5 77.9 268.9 72.6Z" fill="white"/>
</mask>
<g mask="url(#mask2_22_10)">
<path d="M308.1 8.09997C311.6 7.79997 315.9 7.69998 319.5 8.19998C325.4 9.69998 330.8 13.5 334.2 18.7C335.6 21.1 338.6 25.4 335.5 27.6C330.4 30.7 324.1 24.8 318.8 25C316 24.9 312.3 24.8 310 25.3C306.1 26.7 302.9 29 299.3 31C297 32.6 297 33.6 294.9 35.5C292.8 37.3 290.3 39 288.1 40.7C285.7 42.4 282.5 45.3 280.3 45.7C275 47 274.3 41.7 275.2 37.7C277 31.4 281.3 26.3 285.3 21.3C287.9 17.8 290.6 16.2 293.9 13.8C298.1 10.5 302.9 9.29998 308 8.19998L308.1 8.09997Z" fill="#F2F7F7"/>
</g>
<mask id="mask3_22_10" style="mask-type:luminance" maskUnits="userSpaceOnUse" x="268" y="10" width="110" height="127">
<path d="M268.9 72.6C268.3 67.3 269.3 58.8 269.5 57.4C270.3 51.8 271.6 46.8 273.3 42.1C279 27.9 291.6 15.8 304.6 12.1C308.4 11 311.5 10.5 314 10.5C316.9 10.5 319.5 11.2 323.5 13L323.7 13.1C329.7 15.7 333.4 19.6 334.7 24.9C336 30.2 336.1 34.6 336.3 40.2C336.4 42 336.4 43.8 336.5 45.7C337.2 59 348.2 63.6 354.8 66.4C355.8 66.8 356.8 67.2 357.8 67.7C367.9 72.4 374.7 79.5 376 86.9L376.2 88.1C377.9 97.8 378.1 98.8 369 116.7C364.4 125.9 354 133.3 342.5 135.7C338.4 136.1 334.9 136.3 331.7 136.3C327.7 136.3 324.2 136 321 135.4C316.8 134.4 312.4 133.4 309.1 132L308.9 131.9L308.7 131.8C307.7 131.4 304.3 129.4 301.9 128C301.9 128 296 125.1 293 120.6C290 116.1 280.5 100.1 276.8 92.6C273.6 85.4 269.5 77.9 268.9 72.6Z" fill="white"/>
</mask>
<g mask="url(#mask3_22_10)">
<path d="M280.7 92.3C285.5 92.1 290.6 92.4 294.7 95C297.5 96.7 299.9 99 302.9 100.2C305.4 101.3 308.1 101.8 310.8 102.4C316.6 103.6 322.3 105.5 328.2 106.5C335.7 107.7 342.3 110.6 349.5 111.8C350.8 112.1 355.4 112.5 357.7 111.6C362.8 109.5 376 104.6 375.6 105.6C375.2 106.7 360.2 113.1 356.8 115C351.9 117.7 344.9 116.7 339.5 117.1C327.7 117.7 316.8 116.9 305.9 113.3C304 112.8 302.2 112.5 300.3 112.5C296.9 112.5 293.5 114.1 290.1 114.2C283.8 114.3 281.7 107.8 278.4 102.7C275.9 98.5 272.2 92.5 280.5 92.2L280.7 92.3Z" fill="#17D7E8"/>
</g>
<mask id="mask4_22_10" style="mask-type:luminance" maskUnits="userSpaceOnUse" x="268" y="10" width="110" height="127">
<path d="M268.9 72.6C268.3 67.3 269.3 58.8 269.5 57.4C270.3 51.8 271.6 46.8 273.3 42.1C279 27.9 291.6 15.8 304.6 12.1C308.4 11 311.5 10.5 314 10.5C316.9 10.5 319.5 11.2 323.5 13L323.7 13.1C329.7 15.7 333.4 19.6 334.7 24.9C336 30.2 336.1 34.6 336.3 40.2C336.4 42 336.4 43.8 336.5 45.7C337.2 59 348.2 63.6 354.8 66.4C355.8 66.8 356.8 67.2 357.8 67.7C367.9 72.4 374.7 79.5 376 86.9L376.2 88.1C377.9 97.8 378.1 98.8 369 116.7C364.4 125.9 354 133.3 342.5 135.7C338.4 136.1 334.9 136.3 331.7 136.3C327.7 136.3 324.2 136 321 135.4C316.8 134.4 312.4 133.4 309.1 132L308.9 131.9L308.7 131.8C307.7 131.4 304.3 129.4 301.9 128C301.9 128 296 125.1 293 120.6C290 116.1 280.5 100.1 276.8 92.6C273.6 85.4 269.5 77.9 268.9 72.6Z" fill="white"/>
</mask>
<g mask="url(#mask4_22_10)">
<path d="M339.4 56.4C340.2 55.8 341.3 56.1 342.2 56.4C343.7 56.9 344.8 57.5 347.1 58.7C353.1 61.9 361.2 65.6 365.3 68.2C367.1 70 369.3 72.1 369.9 74.6C370.3 79.6 367.2 81 362.8 79.5C357 77.4 351.5 74.5 346.1 71.8C343.8 70.6 341.5 69.7 340.1 67.5C338.1 64.6 336.7 59.4 339.4 56.4Z" fill="#D5F4F6"/>
</g>
<mask id="mask5_22_10" style="mask-type:luminance" maskUnits="userSpaceOnUse" x="268" y="10" width="110" height="127">
<path d="M268.9 72.6C268.3 67.3 269.3 58.8 269.5 57.4C270.3 51.8 271.6 46.8 273.3 42.1C279 27.9 291.6 15.8 304.6 12.1C308.4 11 311.5 10.5 314 10.5C316.9 10.5 319.5 11.2 323.5 13L323.7 13.1C329.7 15.7 333.4 19.6 334.7 24.9C336 30.2 336.1 34.6 336.3 40.2C336.4 42 336.4 43.8 336.5 45.7C337.2 59 348.2 63.6 354.8 66.4C355.8 66.8 356.8 67.2 357.8 67.7C367.9 72.4 374.7 79.5 376 86.9L376.2 88.1C377.9 97.8 378.1 98.8 369 116.7C364.4 125.9 354 133.3 342.5 135.7C338.4 136.1 334.9 136.3 331.7 136.3C327.7 136.3 324.2 136 321 135.4C316.8 134.4 312.4 133.4 309.1 132L308.9 131.9L308.7 131.8C307.7 131.4 304.3 129.4 301.9 128C301.9 128 296 125.1 293 120.6C290 116.1 280.5 100.1 276.8 92.6C273.6 85.4 269.5 77.9 268.9 72.6Z" fill="white"/>
</mask>
<g mask="url(#mask5_22_10)">
<path d="M284.4 22C282 24.9 280 27.1 278.3 30.4C277.3 32.3 276 34.3 275.1 36.2C274.2 38.7 274.3 42.7 274.9 44.9C275.6 46.5 278.2 46.5 279.7 46.3C280.8 46.2 281.5 45.8 282.3 45.2C285.2 43.1 292.8 37.4 295.7 35.2C296.6 34.5 297.1 33.5 297.9 32.8C299.3 31.4 301.3 30.2 303.2 29.2C307.8 27 305.8 25.1 301.5 27.7C298.8 29.5 295.1 31.7 292 32.1C290.5 32.1 290 30.1 289 28.4C288 26.8 287.1 24.9 287.5 22.9C287.6 22.3 287.8 21.8 288 21.3C288.3 19.9 290.9 17.4 291.4 16.5C291.2 16.3 285.1 21.2 284.4 22Z" fill="#D6F6F8"/>
</g>
<mask id="mask6_22_10" style="mask-type:luminance" maskUnits="userSpaceOnUse" x="268" y="10" width="110" height="127">
<path d="M268.9 72.6C268.3 67.3 269.3 58.8 269.5 57.4C270.3 51.8 271.6 46.8 273.3 42.1C279 27.9 291.6 15.8 304.6 12.1C308.4 11 311.5 10.5 314 10.5C316.9 10.5 319.5 11.2 323.5 13L323.7 13.1C329.7 15.7 333.4 19.6 334.7 24.9C336 30.2 336.1 34.6 336.3 40.2C336.4 42 336.4 43.8 336.5 45.7C337.2 59 348.2 63.6 354.8 66.4C355.8 66.8 356.8 67.2 357.8 67.7C367.9 72.4 374.7 79.5 376 86.9L376.2 88.1C377.9 97.8 378.1 98.8 369 116.7C364.4 125.9 354 133.3 342.5 135.7C338.4 136.1 334.9 136.3 331.7 136.3C327.7 136.3 324.2 136 321 135.4C316.8 134.4 312.4 133.4 309.1 132L308.9 131.9L308.7 131.8C307.7 131.4 304.3 129.4 301.9 128C301.9 128 296 125.1 293 120.6C290 116.1 280.5 100.1 276.8 92.6C273.6 85.4 269.5 77.9 268.9 72.6Z" fill="white"/>
</mask>
<g mask="url(#mask6_22_10)">
<path d="M333.5 18.2C335.8 18.8 336.9 22.6 337.1 25C337.2 26.1 337.6 27.3 336.8 28.1C335.5 29.1 332 29.5 330 29C328.2 28.5 326.5 27.6 327.6 27C327.9 26.8 328.2 26.7 328.6 26.5C330.3 25.9 332.7 25.5 332.9 23.4C333.2 21.6 332.6 18.8 333.5 18.2Z" fill="#CBE8EB"/>
</g>
<mask id="mask7_22_10" style="mask-type:luminance" maskUnits="userSpaceOnUse" x="96" y="55" width="192" height="188">
<path d="M260.6 83.3C257.4 79.4 252.7 75.1 252.7 75.1C252.6 75 252.5 74.9 252.3 74.8C251.1 73.8 248.6 71.8 247.1 70.7C247.1 70.7 244.4 68.7 243.2 68C236.5 63.8 228.9 60.7 221.3 58.9C219.4 58.5 217.5 58.1 215.6 57.6C211.2 56.6 207.1 55.6 203.4 55.6C203.2 55.6 200.6 55.6 200.6 55.6C195.1 55.7 189.9 55.8 184.9 56.6C176.9 57.8 167.7 59.6 160.1 62.9C150.3 67.8 142.4 72.6 135.9 77.5L135.8 77.6C127.3 83.8 120.7 91.4 114.8 98.7C108 107.5 103.3 116.8 100.6 126.3C97.1 138.5 95.4 153.5 97.5 162.9C98.9 168.9 107.2 181 111 188C114.8 195 119.8 204.9 123.2 212.1C126 217.9 133.9 224 133.9 224C135.8 225.8 138.2 227.9 139 228.3C139.8 228.8 140.7 229.3 141.6 229.9C143.1 230.8 144.5 231.7 146 232.5L146.2 232.6C151.7 235.9 158.8 237.7 165.6 239.3C166.8 239.6 167.9 239.9 169.1 240.2C174.7 241.6 180.8 242.3 187.8 242.3C190.4 242.3 193.1 242.2 196.2 242C204.2 241.5 216.8 237.6 224.9 233.2C264.7 211.5 279.1 185.6 284.2 167.6C285.8 161.8 286.9 155.8 287 151.9C287.1 144.7 288.1 135.6 287.1 129.4C286.2 123.2 279 112.5 274.9 105.5C270.8 98.5 264.2 87.7 260.6 83.3Z" fill="white"/>
</mask>
<g mask="url(#mask7_22_10)">
<path d="M184.4 56.3C243.5 47.8 298.3 93.7001 287.6 158.8C280.3 202.9 237.3 241 192.9 243.7C159.8 246.1 126.6 225.9 109.6 197.5C73.4 138.2 118.7 65.0001 184.2 56.4001L184.4 56.3Z" fill="#3EF4FA"/>
</g>
<mask id="mask8_22_10" style="mask-type:luminance" maskUnits="userSpaceOnUse" x="96" y="55" width="192" height="188">
<path d="M260.6 83.3C257.4 79.4 252.7 75.1 252.7 75.1C252.6 75 252.5 74.9 252.3 74.8C251.1 73.8 248.6 71.8 247.1 70.7C247.1 70.7 244.4 68.7 243.2 68C236.5 63.8 228.9 60.7 221.3 58.9C219.4 58.5 217.5 58.1 215.6 57.6C211.2 56.6 207.1 55.6 203.4 55.6C203.2 55.6 200.6 55.6 200.6 55.6C195.1 55.7 189.9 55.8 184.9 56.6C176.9 57.8 167.7 59.6 160.1 62.9C150.3 67.8 142.4 72.6 135.9 77.5L135.8 77.6C127.3 83.8 120.7 91.4 114.8 98.7C108 107.5 103.3 116.8 100.6 126.3C97.1 138.5 95.4 153.5 97.5 162.9C98.9 168.9 107.2 181 111 188C114.8 195 119.8 204.9 123.2 212.1C126 217.9 133.9 224 133.9 224C135.8 225.8 138.2 227.9 139 228.3C139.8 228.8 140.7 229.3 141.6 229.9C143.1 230.8 144.5 231.7 146 232.5L146.2 232.6C151.7 235.9 158.8 237.7 165.6 239.3C166.8 239.6 167.9 239.9 169.1 240.2C174.7 241.6 180.8 242.3 187.8 242.3C190.4 242.3 193.1 242.2 196.2 242C204.2 241.5 216.8 237.6 224.9 233.2C264.7 211.5 279.1 185.6 284.2 167.6C285.8 161.8 286.9 155.8 287 151.9C287.1 144.7 288.1 135.6 287.1 129.4C286.2 123.2 279 112.5 274.9 105.5C270.8 98.5 264.2 87.7 260.6 83.3Z" fill="white"/>
</mask>
<g mask="url(#mask8_22_10)">
<path d="M287.6 157.7C283.4 168.8 284.2 183.1 264.3 204.7C253.8 216.1 241.8 226 227.8 232.9C211.9 240.5 194.4 245 176.7 242.2C161.9 239.6 147.3 234.7 134.8 225.9C123.3 217.1 111.9 206.5 105.5 193.2C101.3 184.2 103.3 172.8 115.1 176.4C121.4 178.5 126.8 182.4 133 184.7C139.1 187.2 165.3 195.7 168.4 196.5C177.5 199.1 185.4 198 193.1 196.9C205.3 195.2 215.3 187 226.8 182.8C231.3 181.4 238.8 176.5 242.7 173.8C247.1 171.6 272.8 168.4 278.3 162.1C285.5 153.5 290.8 150 287.6 157.7Z" fill="#18D7E9"/>
</g>
<mask id="mask9_22_10" style="mask-type:luminance" maskUnits="userSpaceOnUse" x="96" y="55" width="192" height="188">
<path d="M260.6 83.3C257.4 79.4 252.7 75.1 252.7 75.1C252.6 75 252.5 74.9 252.3 74.8C251.1 73.8 248.6 71.8 247.1 70.7C247.1 70.7 244.4 68.7 243.2 68C236.5 63.8 228.9 60.7 221.3 58.9C219.4 58.5 217.5 58.1 215.6 57.6C211.2 56.6 207.1 55.6 203.4 55.6C203.2 55.6 200.6 55.6 200.6 55.6C195.1 55.7 189.9 55.8 184.9 56.6C176.9 57.8 167.7 59.6 160.1 62.9C150.3 67.8 142.4 72.6 135.9 77.5L135.8 77.6C127.3 83.8 120.7 91.4 114.8 98.7C108 107.5 103.3 116.8 100.6 126.3C97.1 138.5 95.4 153.5 97.5 162.9C98.9 168.9 107.2 181 111 188C114.8 195 119.8 204.9 123.2 212.1C126 217.9 133.9 224 133.9 224C135.8 225.8 138.2 227.9 139 228.3C139.8 228.8 140.7 229.3 141.6 229.9C143.1 230.8 144.5 231.7 146 232.5L146.2 232.6C151.7 235.9 158.8 237.7 165.6 239.3C166.8 239.6 167.9 239.9 169.1 240.2C174.7 241.6 180.8 242.3 187.8 242.3C190.4 242.3 193.1 242.2 196.2 242C204.2 241.5 216.8 237.6 224.9 233.2C264.7 211.5 279.1 185.6 284.2 167.6C285.8 161.8 286.9 155.8 287 151.9C287.1 144.7 288.1 135.6 287.1 129.4C286.2 123.2 279 112.5 274.9 105.5C270.8 98.5 264.2 87.7 260.6 83.3Z" fill="white"/>
</mask>
<g mask="url(#mask9_22_10)">
<path d="M276.3 183.3C285.9 179.2 272.5 194.8 267.3 202.5C259 215.6 219.2 239 204.6 242.5C183.2 247.3 160.5 241.5 141.5 231C136.2 227.9 131.5 224.3 127.1 220.2C121.7 215.1 115.9 209.9 111.8 203.7C106.1 195.4 116.4 191.8 123.4 193.2C130.3 194.3 136.1 199.1 142.2 202.1C151.7 206.9 161.4 210.9 171.9 212.9C178 214.1 184.5 212.9 190.4 212.1C196.1 210.7 200.1 208.3 205.5 207.2C209.5 206.6 214.5 208.1 218.3 206.3C223.6 204.3 241.8 206 248.6 196.4C250.8 193.3 268.4 186.7 276.3 183.3Z" fill="#18C1DD"/>
</g>
<mask id="mask10_22_10" style="mask-type:luminance" maskUnits="userSpaceOnUse" x="96" y="55" width="192" height="188">
<path d="M260.6 83.3C257.4 79.4 252.7 75.1 252.7 75.1C252.6 75 252.5 74.9 252.3 74.8C251.1 73.8 248.6 71.8 247.1 70.7C247.1 70.7 244.4 68.7 243.2 68C236.5 63.8 228.9 60.7 221.3 58.9C219.4 58.5 217.5 58.1 215.6 57.6C211.2 56.6 207.1 55.6 203.4 55.6C203.2 55.6 200.6 55.6 200.6 55.6C195.1 55.7 189.9 55.8 184.9 56.6C176.9 57.8 167.7 59.6 160.1 62.9C150.3 67.8 142.4 72.6 135.9 77.5L135.8 77.6C127.3 83.8 120.7 91.4 114.8 98.7C108 107.5 103.3 116.8 100.6 126.3C97.1 138.5 95.4 153.5 97.5 162.9C98.9 168.9 107.2 181 111 188C114.8 195 119.8 204.9 123.2 212.1C126 217.9 133.9 224 133.9 224C135.8 225.8 138.2 227.9 139 228.3C139.8 228.8 140.7 229.3 141.6 229.9C143.1 230.8 144.5 231.7 146 232.5L146.2 232.6C151.7 235.9 158.8 237.7 165.6 239.3C166.8 239.6 167.9 239.9 169.1 240.2C174.7 241.6 180.8 242.3 187.8 242.3C190.4 242.3 193.1 242.2 196.2 242C204.2 241.5 216.8 237.6 224.9 233.2C264.7 211.5 279.1 185.6 284.2 167.6C285.8 161.8 286.9 155.8 287 151.9C287.1 144.7 288.1 135.6 287.1 129.4C286.2 123.2 279 112.5 274.9 105.5C270.8 98.5 264.2 87.7 260.6 83.3Z" fill="white"/>
</mask>
<g mask="url(#mask10_22_10)">
<path d="M182.7 55.4C189.7 54.7 198.8 55.1 206.1 55C211.7 54.9 216.8 55.6 222.2 57.1C238.3 62.1 256.6 74.6 267 88C268.8 90.7 268.8 91.3 265.9 91.1C261.9 90.6 257.3 90.2 253.3 89.1C249 87.8 245.7 85.5 241.8 83.5C235.8 80.3 229.2 76.8 223.3 73.5C215.6 69.1 219 80.3 213.7 83.4C209 87 201.2 85.6 197.7 80.9C197.2 80.2 196.7 79.4 196.4 78.5C194.6 74.6 197.4 69.6 193 68.5C186.7 68.3 179 70.8001 173.1 72.2001C167.9 73.6001 163.3 76.2 158.4 78.5C151.2 81.8 145.5 85.4 138.8 88.9C134.9 90.8 127.1 93.8 123.6 90.6C123 89.8 123 88.7 123.8 87.4C126.3 83.7 129.9 80.9 133.4 77.9C137.6 74.5 141.7 71.4 146.6 68.6C157.7 62.3 169.9 57.1 182.5 55.4H182.7Z" fill="#D7F6F8"/>
</g>
<mask id="mask11_22_10" style="mask-type:luminance" maskUnits="userSpaceOnUse" x="96" y="55" width="192" height="188">
<path d="M260.6 83.3C257.4 79.4 252.7 75.1 252.7 75.1C252.6 75 252.5 74.9 252.3 74.8C251.1 73.8 248.6 71.8 247.1 70.7C247.1 70.7 244.4 68.7 243.2 68C236.5 63.8 228.9 60.7 221.3 58.9C219.4 58.5 217.5 58.1 215.6 57.6C211.2 56.6 207.1 55.6 203.4 55.6C203.2 55.6 200.6 55.6 200.6 55.6C195.1 55.7 189.9 55.8 184.9 56.6C176.9 57.8 167.7 59.6 160.1 62.9C150.3 67.8 142.4 72.6 135.9 77.5L135.8 77.6C127.3 83.8 120.7 91.4 114.8 98.7C108 107.5 103.3 116.8 100.6 126.3C97.1 138.5 95.4 153.5 97.5 162.9C98.9 168.9 107.2 181 111 188C114.8 195 119.8 204.9 123.2 212.1C126 217.9 133.9 224 133.9 224C135.8 225.8 138.2 227.9 139 228.3C139.8 228.8 140.7 229.3 141.6 229.9C143.1 230.8 144.5 231.7 146 232.5L146.2 232.6C151.7 235.9 158.8 237.7 165.6 239.3C166.8 239.6 167.9 239.9 169.1 240.2C174.7 241.6 180.8 242.3 187.8 242.3C190.4 242.3 193.1 242.2 196.2 242C204.2 241.5 216.8 237.6 224.9 233.2C264.7 211.5 279.1 185.6 284.2 167.6C285.8 161.8 286.9 155.8 287 151.9C287.1 144.7 288.1 135.6 287.1 129.4C286.2 123.2 279 112.5 274.9 105.5C270.8 98.5 264.2 87.7 260.6 83.3Z" fill="white"/>
</mask>
<g mask="url(#mask11_22_10)">
<path d="M198.2 68.8C202.4 66.9 208.4 67.6 212.1 70.4C213.9 72 214.8 74.7 214.9 77.4C214.8 80.4 213.8 83.9 211.2 85C206.7 86.7 200.6 85 197.4 81.6C194.3 78.2 193.5 71.2 198 68.8H198.2Z" fill="#F2F7F7"/>
</g>
<mask id="mask12_22_10" style="mask-type:luminance" maskUnits="userSpaceOnUse" x="10" y="166" width="108" height="123">
<path d="M115.3 216C115.9 219.2 117.3 223.2 117.1 230C116.9 236.8 112.9 248.1 112.2 250.2C110.3 256.5 107.5 261.9 102.9 268.4C97.4 275.9 88.1 285.3 75.2 287.8C72.8 288.2 70.4 288.5 68.1 288.5C59.8 288.5 54.3 285.7 52.8 284.8L52.6 284.7C48.1 282.3 44.9 278 43.9 272.9V272.7C43.3 269.7 42.9 266.1 42.6 260.8C42.7 255.3 42.9 249 42.9 249L43.3 239.8L34.2 238.6C31.9 238.3 28.8 237.5 27.9 237.1L27.5 236.9L27.1 236.7C20.6 233.6 16.2 229.9 13.1 220.4L13 220.2V220C11.3 215.7 10.5 211.6 10.4 207.3V207.2C10.2 200.4 11.2 195.2 13.6 190.3C17.9 181.4 26.9 173.9 39.1 168.9C42 167.7 48.3 166.9 55 166.9C57.9 166.9 59.7 167 60.4 167.1C61.9 167.3 63.2 167.4 64.5 167.5C67 167.7 69.2 167.8 72.2 168.7C72.9 168.9 74.1 169.2 75.4 169.5C77.2 170 81.4 171 82.8 171.6C82.8 171.6 89.9 174.8 93.5 178.1C97.1 181.4 102.2 189 105.4 194.5C108.5 199.8 114.8 212.8 115.3 216Z" fill="white"/>
</mask>
<g mask="url(#mask12_22_10)">
<path d="M43 165H67L80 169L87.7 169.7L98.4 179.3L107.4 194.7L115.3 208.3L120.2 226.9L118.5 242.4L112 254L104 270L95 280L85 287L77 290H59L51 286L44 278L41 271V243L30 240L21 236L15 231L13 227L9 220L7 214L6 205L8 195L14 183L23 174L39 166L43 165Z" fill="#3EF4FA"/>
</g>
<mask id="mask13_22_10" style="mask-type:luminance" maskUnits="userSpaceOnUse" x="10" y="166" width="108" height="123">
<path d="M115.3 216C115.9 219.2 117.3 223.2 117.1 230C116.9 236.8 112.9 248.1 112.2 250.2C110.3 256.5 107.5 261.9 102.9 268.4C97.4 275.9 88.1 285.3 75.2 287.8C72.8 288.2 70.4 288.5 68.1 288.5C59.8 288.5 54.3 285.7 52.8 284.8L52.6 284.7C48.1 282.3 44.9 278 43.9 272.9V272.7C43.3 269.7 42.9 266.1 42.6 260.8C42.7 255.3 42.9 249 42.9 249L43.3 239.8L34.2 238.6C31.9 238.3 28.8 237.5 27.9 237.1L27.5 236.9L27.1 236.7C20.6 233.6 16.2 229.9 13.1 220.4L13 220.2V220C11.3 215.7 10.5 211.6 10.4 207.3V207.2C10.2 200.4 11.2 195.2 13.6 190.3C17.9 181.4 26.9 173.9 39.1 168.9C42 167.7 48.3 166.9 55 166.9C57.9 166.9 59.7 167 60.4 167.1C61.9 167.3 63.2 167.4 64.5 167.5C67 167.7 69.2 167.8 72.2 168.7C72.9 168.9 74.1 169.2 75.4 169.5C77.2 170 81.4 171 82.8 171.6C82.8 171.6 89.9 174.8 93.5 178.1C97.1 181.4 102.2 189 105.4 194.5C108.5 199.8 114.8 212.8 115.3 216Z" fill="white"/>
</mask>
<g mask="url(#mask13_22_10)">
<path d="M108.7 194.9C111.2 198.3 113.3 210.3 115.7 213.5C120.6 219.5 119.2 225 116.5 238.9C114 251.7 109.7 263.7 100.2 275.1C93.4 283.2 84.7 289.8 73.8 290.8C67.3 291.3 60 291.5 54.1 288.4C48.4 285.1 43.3 279.2 41.6 272.6C40.6 268 39.9 264.1 42.2 260.5C43.4 258.8 46.1 257.2 47.5 255C50.9 249.3 57 246.3 63 243.9C66.2 242.6 69 240.6 71.7 238.8C75.4 236.4 77.9 232.8 79.8 228.8C80.6 227.1 83 224.2 83.6 222.5C84.8 219.2 87.4 218.6 89 216.4C90.4 214.9 91.9 212.3 92.4 209.5C93.4 206.2 93.9 202.7 97.7 197.3C101.5 191.9 106.5 191.9 108.7 194.9Z" fill="#18C1DD"/>
</g>
<mask id="mask14_22_10" style="mask-type:luminance" maskUnits="userSpaceOnUse" x="10" y="166" width="108" height="123">
<path d="M115.3 216C115.9 219.2 117.3 223.2 117.1 230C116.9 236.8 112.9 248.1 112.2 250.2C110.3 256.5 107.5 261.9 102.9 268.4C97.4 275.9 88.1 285.3 75.2 287.8C72.8 288.2 70.4 288.5 68.1 288.5C59.8 288.5 54.3 285.7 52.8 284.8L52.6 284.7C48.1 282.3 44.9 278 43.9 272.9V272.7C43.3 269.7 42.9 266.1 42.6 260.8C42.7 255.3 42.9 249 42.9 249L43.3 239.8L34.2 238.6C31.9 238.3 28.8 237.5 27.9 237.1L27.5 236.9L27.1 236.7C20.6 233.6 16.2 229.9 13.1 220.4L13 220.2V220C11.3 215.7 10.5 211.6 10.4 207.3V207.2C10.2 200.4 11.2 195.2 13.6 190.3C17.9 181.4 26.9 173.9 39.1 168.9C42 167.7 48.3 166.9 55 166.9C57.9 166.9 59.7 167 60.4 167.1C61.9 167.3 63.2 167.4 64.5 167.5C67 167.7 69.2 167.8 72.2 168.7C72.9 168.9 74.1 169.2 75.4 169.5C77.2 170 81.4 171 82.8 171.6C82.8 171.6 89.9 174.8 93.5 178.1C97.1 181.4 102.2 189 105.4 194.5C108.5 199.8 114.8 212.8 115.3 216Z" fill="white"/>
</mask>
<g mask="url(#mask14_22_10)">
<path d="M108.2 195.7C102.3 202.7 97.3 212.1 97.8 221.5C97.9 224.8 98.9 228.1 98.4 231.5C98.1 233.7 96.5 235.6 96.5 237.7C96.5 239.3 97.3 240.9 97.8 242.4C99.9 251.5 87.5 259.5 80.3 262.6C72 266.4 62 267.6 55 273.7C52.2 275.9 50 279.5 46.6 280.7C40.6 281.9 39 273 39.2 268.5C39.3 263.6 42.7 260.2 45.8 256.7C48.8 253 52.4 249.7 56.7 247.4C63.9 243.7 71.9 240.7 75.5 232.8C78.3 227 79.9 220.2 84.5 215.3C87.5 211.7 88.2 206.3 90.7 202.1C93.3 197.7 97.5 194.7 100.3 190.4C101.8 188.5 102.8 184.6 103.7 183.1C104.1 182.4 104.9 182.7 105.5 183.1C109.2 185.9 112.2 190.9 108.5 195.6L108.2 195.7Z" fill="#16D5E7"/>
</g>
<mask id="mask15_22_10" style="mask-type:luminance" maskUnits="userSpaceOnUse" x="10" y="166" width="108" height="123">
<path d="M115.3 216C115.9 219.2 117.3 223.2 117.1 230C116.9 236.8 112.9 248.1 112.2 250.2C110.3 256.5 107.5 261.9 102.9 268.4C97.4 275.9 88.1 285.3 75.2 287.8C72.8 288.2 70.4 288.5 68.1 288.5C59.8 288.5 54.3 285.7 52.8 284.8L52.6 284.7C48.1 282.3 44.9 278 43.9 272.9V272.7C43.3 269.7 42.9 266.1 42.6 260.8C42.7 255.3 42.9 249 42.9 249L43.3 239.8L34.2 238.6C31.9 238.3 28.8 237.5 27.9 237.1L27.5 236.9L27.1 236.7C20.6 233.6 16.2 229.9 13.1 220.4L13 220.2V220C11.3 215.7 10.5 211.6 10.4 207.3V207.2C10.2 200.4 11.2 195.2 13.6 190.3C17.9 181.4 26.9 173.9 39.1 168.9C42 167.7 48.3 166.9 55 166.9C57.9 166.9 59.7 167 60.4 167.1C61.9 167.3 63.2 167.4 64.5 167.5C67 167.7 69.2 167.8 72.2 168.7C72.9 168.9 74.1 169.2 75.4 169.5C77.2 170 81.4 171 82.8 171.6C82.8 171.6 89.9 174.8 93.5 178.1C97.1 181.4 102.2 189 105.4 194.5C108.5 199.8 114.8 212.8 115.3 216Z" fill="white"/>
</mask>
<g mask="url(#mask15_22_10)">
<path d="M42.2 164.8C47.5 163.9 53 164 58.6 164C66.1 164.1 72.7 164.9 79.3 167.6C88.6 171.1 87.9 177.3 78.4 179.3C71.6 180.7 64.3 179.3 57.4 180C51 180.4 44.9 182.7 39.1 185.5C35.2 187.5 31 189.4 27.1 191.3C22.6 193.6 13.1 197.8 11.1 191.8C8.69999 179.1 31.3 166.5 41.8 164.8H42.2Z" fill="#F2F7F7"/>
</g>
<mask id="mask16_22_10" style="mask-type:luminance" maskUnits="userSpaceOnUse" x="10" y="166" width="108" height="123">
<path d="M115.3 216C115.9 219.2 117.3 223.2 117.1 230C116.9 236.8 112.9 248.1 112.2 250.2C110.3 256.5 107.5 261.9 102.9 268.4C97.4 275.9 88.1 285.3 75.2 287.8C72.8 288.2 70.4 288.5 68.1 288.5C59.8 288.5 54.3 285.7 52.8 284.8L52.6 284.7C48.1 282.3 44.9 278 43.9 272.9V272.7C43.3 269.7 42.9 266.1 42.6 260.8C42.7 255.3 42.9 249 42.9 249L43.3 239.8L34.2 238.6C31.9 238.3 28.8 237.5 27.9 237.1L27.5 236.9L27.1 236.7C20.6 233.6 16.2 229.9 13.1 220.4L13 220.2V220C11.3 215.7 10.5 211.6 10.4 207.3V207.2C10.2 200.4 11.2 195.2 13.6 190.3C17.9 181.4 26.9 173.9 39.1 168.9C42 167.7 48.3 166.9 55 166.9C57.9 166.9 59.7 167 60.4 167.1C61.9 167.3 63.2 167.4 64.5 167.5C67 167.7 69.2 167.8 72.2 168.7C72.9 168.9 74.1 169.2 75.4 169.5C77.2 170 81.4 171 82.8 171.6C82.8 171.6 89.9 174.8 93.5 178.1C97.1 181.4 102.2 189 105.4 194.5C108.5 199.8 114.8 212.8 115.3 216Z" fill="white"/>
</mask>
<g mask="url(#mask16_22_10)">
<path d="M17.1 176.6C17.9 176.8 17.8 177.9 17.8 178.6C17.3 185.1 15.6 189.3 23.4 191.2C24.5 191.6 26.2 191.8 24.7 192.8C22.8 194 18.6 196 15.9 197.1C13.8 197.9 11.9 198.8 9.70001 198.6C4.60001 197.6 4.29998 190.3 6.79998 186.5C8.59998 183.4 11.5 180.4 14.2 178.1C15.5 177.1 16.5 176.6 17.1 176.6Z" fill="#D4F4F6"/>
</g>
<mask id="mask17_22_10" style="mask-type:luminance" maskUnits="userSpaceOnUse" x="10" y="166" width="108" height="123">
<path d="M115.3 216C115.9 219.2 117.3 223.2 117.1 230C116.9 236.8 112.9 248.1 112.2 250.2C110.3 256.5 107.5 261.9 102.9 268.4C97.4 275.9 88.1 285.3 75.2 287.8C72.8 288.2 70.4 288.5 68.1 288.5C59.8 288.5 54.3 285.7 52.8 284.8L52.6 284.7C48.1 282.3 44.9 278 43.9 272.9V272.7C43.3 269.7 42.9 266.1 42.6 260.8C42.7 255.3 42.9 249 42.9 249L43.3 239.8L34.2 238.6C31.9 238.3 28.8 237.5 27.9 237.1L27.5 236.9L27.1 236.7C20.6 233.6 16.2 229.9 13.1 220.4L13 220.2V220C11.3 215.7 10.5 211.6 10.4 207.3V207.2C10.2 200.4 11.2 195.2 13.6 190.3C17.9 181.4 26.9 173.9 39.1 168.9C42 167.7 48.3 166.9 55 166.9C57.9 166.9 59.7 167 60.4 167.1C61.9 167.3 63.2 167.4 64.5 167.5C67 167.7 69.2 167.8 72.2 168.7C72.9 168.9 74.1 169.2 75.4 169.5C77.2 170 81.4 171 82.8 171.6C82.8 171.6 89.9 174.8 93.5 178.1C97.1 181.4 102.2 189 105.4 194.5C108.5 199.8 114.8 212.8 115.3 216Z" fill="white"/>
</mask>
<g mask="url(#mask17_22_10)">
<path d="M12.3 218.6C12.5 218.4 16.6 224.7 17.8 225.8C19.5 227.5 21.9 229.7 24.3 231.4C26.3 232.8 29.9 235.4 33.5 236.5C35 237 42.8 238.9 42.7 239.9C41.8 245.9 27.6 239.6 22.2 236.7C17.5 234.1 13.4 229.9 11.6 224.6C11.3 224 10.8 222.6 11.2 222.3L12.3 218.6Z" fill="#1EC4DD"/>
</g>
<mask id="mask18_22_10" style="mask-type:luminance" maskUnits="userSpaceOnUse" x="10" y="166" width="108" height="123">
<path d="M115.3 216C115.9 219.2 117.3 223.2 117.1 230C116.9 236.8 112.9 248.1 112.2 250.2C110.3 256.5 107.5 261.9 102.9 268.4C97.4 275.9 88.1 285.3 75.2 287.8C72.8 288.2 70.4 288.5 68.1 288.5C59.8 288.5 54.3 285.7 52.8 284.8L52.6 284.7C48.1 282.3 44.9 278 43.9 272.9V272.7C43.3 269.7 42.9 266.1 42.6 260.8C42.7 255.3 42.9 249 42.9 249L43.3 239.8L34.2 238.6C31.9 238.3 28.8 237.5 27.9 237.1L27.5 236.9L27.1 236.7C20.6 233.6 16.2 229.9 13.1 220.4L13 220.2V220C11.3 215.7 10.5 211.6 10.4 207.3V207.2C10.2 200.4 11.2 195.2 13.6 190.3C17.9 181.4 26.9 173.9 39.1 168.9C42 167.7 48.3 166.9 55 166.9C57.9 166.9 59.7 167 60.4 167.1C61.9 167.3 63.2 167.4 64.5 167.5C67 167.7 69.2 167.8 72.2 168.7C72.9 168.9 74.1 169.2 75.4 169.5C77.2 170 81.4 171 82.8 171.6C82.8 171.6 89.9 174.8 93.5 178.1C97.1 181.4 102.2 189 105.4 194.5C108.5 199.8 114.8 212.8 115.3 216Z" fill="white"/>
</mask>
<g mask="url(#mask18_22_10)">
<path d="M72.9 165.8C74.5 164.8 78.6 166.3 80.9 167.2C83.8 168.5 87.9 170.1 87.5 173.8C86.8 177.3 80.6 180.4 78 177C75.9 174.9 74.6 171.4 73.3 168.9C72.5 167.4 72.3 166.4 72.9 165.8Z" fill="#CCEAEE"/>
</g>
</svg>
