<?xml version="1.0" encoding="UTF-8"?>
<svg version="1.1" viewBox="0 0 1576 1296" width="394" height="324" xmlns="http://www.w3.org/2000/svg">
<path transform="translate(1238,19)" d="m0 0h43l19 2 19 4 17 6 14 8 11 8 13 11 10 10 9 12 5 11 4 16 6 39 6 46 4 22 4 6 8 6 13 8 28 16 22 14 17 13 10 9 10 10 11 15 9 16 6 13 4 14 1 20v26l-1 18-5 25-8 26-8 21-8 16-9 11-6 7-8 7-10 10-11 9-15 11-19 10-17 6-18 4-11 2-11 1-27 1h-27l-31-1-24-4-24-8-26-12-18-8h-2v95l3 3-6 5-6 12-12 36-11 28-14 29-10 18-12 19-16 24-9 11-7 9-12 14-12 13-15 15-8 7-11 9-20 15-24 16-22 14-23 13-23 12-22 10-26 10-22 7-23 6-25 5-35 4-19 1-28-2-30-4-27-6-24-7-38-12-13-3-16-8-27-16-19-12-16-10-1 8-8 29-10 36-9 26-11 26-12 22-10 15-10 13-9 10-7 8-18 18-11 9-13 10-15 9-16 8-15 6-19 6-21 5-13 2h-19l-23-3-19-5-21-8-18-10-13-10-14-14-8-13-5-13-5-24-4-40-1-43-2-7-8-7-23-13-19-12-18-14-12-11-12-12-10-15-8-16-6-16-5-20-3-31v-18l3-42 5-21 5-12 6-11 8-11 11-12 7-8 15-15 8-7 15-12 15-10 18-10 16-7 18-6 20-4 11-1h28l21 2 35 6 25 6 27 8 20 7 6 1-1-84-2-3 1-5 4-12 3-11 6-25 6-26 7-23 9-22 12-25 14-23 10-14 12-16 11-13 12-13 11-12 25-25 8-7 11-10 14-11 13-10 30-20 15-9 25-14 16-8 21-9 27-9 25-6 20-4 20-3 45-3h22l43 3 32 5 30 7 26 8 27 11 16 8 16 9 18 13 11 9 10 9 6 4 1-18 4-38 6-29 6-20 10-24 11-21 7-10 9-13 11-13 11-12 10-10 11-9 13-10 16-10 19-10 17-6z" fill="#334266"/>
<path transform="translate(787,228)" d="m0 0h66l21 2 27 4 26 6 7 3v2l6 2 29 15 22 12 10 4 9 7 6 4 5 5 12 9 7 4 5 5 10 9 29 29 10 13 14 20 12 21 12 23 10 23v2h2l7 20 5 14 8 36 4 25 2 25v44l-4 34-4 20-6 20-10 24-10 22-7 13-2 1-3 9h-2l-2 7h-2l-2 5h-2l-1 5-3 2-2 5-2 4h-2l-1 5-5 5h-2l-1 4-4 5h-2l-1 4-2 1-4 9-11 13-10 9-18 18-8 7-10 9-14 11-21 14-10 6-5 5-22 12-14 8-24 11-16 6-2 2-13 2-22 7-31 8-14 3-18 2h-36l-22-3-32-8-29-8-26-8-27-11-23-11-12-7-8-4-4-4v-2l-4-1-8-5-7-6-5-2-5-4v-2l-6-3v-2l-5-2-1-3-4-2-26-24-13-14-10-13-14-19-7-11-8-15v-6h-3l-3-6v-6h-3l-3-7-4-13-9-27-7-27-4-24-2-19-2-16v-47l6-36 4-18 4-15 9-27 13-30 11-21 9-14 8-11 2-2 2-5 10-11 2-4h2v-2l5-5 14-15 7-8 9-9h3l2-4 6-6 5-3 7-5 4-5 8-7 5-3 5-5 10-9 7-4h2v-2l9-5 5-2v-2l14-7h2v-2h4v-2l23-11h2v-2l15-6h4v-2l20-7 18-6 35-8 27-4z" fill="#3AF4FC"/>
<path transform="translate(219,664)" d="m0 0h53l17 2 18 2 20 6 20 8 17 9 10 7 8 9 9 20 8 22v2h2l1 9h2l1 8h2l4 10v5h2l3 6 3 11h2l3 5 2 7 3 3 1 6 3 1 4 9 8 8 2 5 9 11 6 7 11 14 12 15 3 4v2h2l5 6 1 2v14l-9 59-4 19-2 11-4 12h-2l-2 11-3 8-3 3-8 17-8 15-10 16-7 10-8 7-7 8-9 8-11 9-17 12-13 8-14 6-14 4-13 3-24 2h-20l-18-3-12-4-10-4v-2l-5-2-4-4-6-3-9-10-5-4-7-10-3-2-2-8-4-8-5-16-1-5v-42l2-24v-28l-3-7-4-4-16-7-32-10-15-6-17-9-9-7-5-5-4-7-1-4-10-14-8-13-6-12-7-21-4-16-1-7v-25l4-18 8-22 9-19h2l1-4 5-9h2l1-4 2-1 3-5 3-1 2-4 14-14 14-11 10-7 16-9 21-10 14-5 16-4z" fill="#39F4FC"/>
<path transform="translate(1270,37)" d="m0 0h26l18 4 13 5 13 8 12 11 10 13 2 5 3 1 5 9 4 17 3 40 2 38 3 21 2 9 2 3v4l3 1v2l4 2 14 10 13 7 5 1v2l9 2 18 7 21 11 14 10 14 12 21 21 8 10 8 15 4 13 3 19v14l-4 24-6 16-13 29-8 16-7 11-9 11-17 17-17 13-18 11-17 8-17 5-15 3-11 1h-22l-20-2-23-4-22-5-19-5-10-2-36-12-19-8-5-5-5-3-7-14-13-40-8-19-3-7-8-18-4-8v-2h-2l-1-5h-2l-2-4v-4h-2v-3h-2l-1-5h-2v-3l-4-2-5-9v-3h-2v-3l-4-2-2-5-3-3-3-6-3-5-3-6v-2h-2l-5-18v-4h-2l-4-33v-24l2-29 4-22 4-14h2l1-7 4-14 8-16 3-8 8-13 3-1 3-6 3-4h2l2-5 6-8 9-10 7-8 13-12 13-9 16-9 16-6 17-5z" fill="#3AF4FC"/>
<path transform="translate(1152,478)" d="m0 0 2 3 3 10 7 31 4 25 2 25v44l-4 34-4 20-6 20-10 24-10 22-7 13-2 1-3 9h-2l-2 7h-2l-2 5h-2l-1 5-3 2-2 5-2 4h-2l-1 5-5 5h-2l-1 4-4 5h-2l-1 4-2 1-4 9-11 13-10 9-18 18-8 7-10 9-14 11-21 14-10 6-5 5-22 12-14 8-24 11-16 6-2 2-13 2-22 7-31 8-14 3-18 2h-36l-22-3-32-8-29-8-26-8-27-11-23-11-12-7-8-4-4-4v-2l-4-1-8-5-7-6-5-2-5-4v-2l-6-3v-2l-5-2-1-3-4-2-26-24-13-14-10-13-14-19-7-11-8-15v-6h-3l-3-6v-6h-3l-3-7-4-13-9-27-7-27-4-24v-11h1l5 31 4 17 4 16 5 12 6 11 6-1 1-2 3-1 5-8 3-1 1-2-3-1 5-9 3-3 3-1 1-2 4 1 8 7 8 6 7 6 13 8 9 1 13 5 10 5 8 7 5 10 5 5 6 4v2l5 2 12 4 16 4 13 5 10 5 15 6 6 2v2h8l20 5h25v2l9-1 5-1 18 3 15 3 2-1 5 1 26-2 8 1 13-5 9-2 2-1h8v-2h9l1-3h8l2-1h-7l4-2 12-2 8-2v-2l9-3 7-1h6l2-1h6v-2l12-3 6-4 8-3 1-1h8l19-9 2 1 4-1 6-5-2-1 4-2 1-3 8-6 5-4 4-2 15-2 9-4 18-11 9-3 10-9h2l2-4 7-7 9-5h2l2-4 9-5 9-6 10-6 8-4 5-5 6-7h2l2-5 3-5 4-6 3-9 4-5 6-2v2l3 3 2 6 5-1 4 3 6 1 2 1v2h2l1-3 4-6h2l2-10 2-9 2-22v-32l-1-16-6-37-7-29z" fill="#12CDE5"/>
<path transform="translate(377,702)" d="m0 0 5 5 9 20 8 22v2h2l1 9h2l1 8h2l4 10v5h2l3 6 3 11h2l3 5 2 7 3 3 1 6 3 1 4 9 8 8 2 5 9 11 6 7 11 14 12 15 3 4v2h2l5 6 1 2v14l-9 59-4 19-2 11-4 12h-2l-2 11-3 8-3 3-8 17-8 15-10 16-7 10-8 7-7 8-9 8-11 9-17 12-13 8-14 6-14 4-13 3-24 2h-20l-18-3-12-4-10-4v-2l-5-2-4-4-6-3-9-10-5-4-7-10-3-2-2-8-4-8-5-16-1-5v-42l2-24v-28l-3-7-4-4-16-7-32-10-15-6-17-9-9-7-5-5-4-7-1-4-10-14-8-13-6-12-7-21-4-16-1-7v-25l4-18 8-22 9-19 2 1-5 12-5 16-3 9-2 7-3 12-1 21 2 18 6 18 6 13 6 11 9 12 7 6v2l4 2 6 6v2l4 2 11 7 17 9 26 11 10 6 11 6 10 7v2l4 1 6 8 2 7 4 12 1 4h2l4 18 4 8 2 3v5h2l1-4h2v-7l3-10 4-9 2-2 3-5 2-1 4 2 1-4 5 4 7-2 1 3 3 1 3 9 1 12 2 7 5-2 1-5 4-11 3-1 4-12 3-11 5-1v2h2v-2h2v-6l2-3h2l1-5 3 4 2 13 2 14h2l2 7 3-2 1-13v-6l4-11 4-4 3-10 4-6 3-3h2l2-4 4-5 9-19 8-16 6-9 5-5 4-6 8-16 6-15 4-11 3-7h2l2-6 1-1 2-9 3-1 3-9 2-34-14-36-6-16-3-7-6-17-4-6z" fill="#12CDE5"/>
<path transform="translate(787,228)" d="m0 0h66l21 2 27 4 26 6 7 3v2l6 2 29 15 22 12 10 4 9 7 6 4 5 5 12 9 7 4 5 5 10 9 12 12 2 10-1 5-8 6-12 6-3 1h-8l-13-5-16-10-17-10-3-2-7-2-14-8-1-2-14-7-9-3-22-12-15-9-8-3-5-2 2 5 5 8 1 11-4 11-6 9-5 4-7 8-8 4-4 1h-19l-14-5-10-6-9-8-5-8v-4h-2l-2-8v-12l3-10v-7l-4-2h-10l-31 6-36 8-16 5-17 7-17 9-17 8-15 8-7 2-22 12-16 9-13 6-16 5h-13l-10-3-8-4-1-6 4-5 4-7 5-4 5-5 12-11 4-2 5-5 10-9 7-4h2v-2l9-5 5-2v-2l14-7h2v-2h4v-2l23-11h2v-2l15-6h4v-2l20-7 18-6 35-8 27-4z" fill="#DDFEFE"/>
<path transform="translate(1476,272)" d="m0 0 5 2 13 10 15 14 15 15 8 10 8 15 4 13 3 19v14l-4 24-6 16-13 29-8 16-7 11-9 11-17 17-17 13-18 11-17 8-17 5-15 3-11 1h-22l-20-2-23-4-22-5-19-5-10-2-36-12-19-8-5-5-5-3-7-14-13-40-8-19-3-7-8-18-4-8v-2h-2l-1-5h-2l-2-4v-4h-2v-3h-2l-1-5h-2v-3l-4-2-5-9v-3h-2v-3l-4-2-2-5-3-3-3-6-3-5-3-6v-2h-2l-2-10 3 3 4 9 8 14 5 6 3 6 10 15v2h2l5 8 5 6v2h2l4 6 5 8 3 4v2l3-1 4 2h9l16 5 4 1 4-1 8 1 9 2 16 6 11 4 8 3 15 4 9 3 21 3 13 3 12 2 7 2 12 2 14 1 11 3 13 5h14l2 1h21l9-1 7-3 26-10 9 1 7 1 8-1 10-6 12-7h3v-2l8-7 4-9 4-13 2-10 1-7v-20l-3-16-6-15-9-14-15-16-2-4-3-1-5-5v-2l-4-2-9-8-10-7z" fill="#15B6D7"/>
<path transform="translate(457,777)" d="m0 0 4 1 5 10 10 14 1 3h2l3 4v2h2l1 4h2l5 7 9 7 5 5 5 4 6 8 6 7 7 5 4-1 2 1-4-7v-1l7 1 3 1 2 5 1-2 12 6 9 3 5 4h9l9 4 3 5 10 2-1-5 2-2 9-2 5 1 5 9 8 2 1 5h6l4 9 2 2 10-1 8 3v2h3l1 2 11 3h3l4-2 16 5 5-2 3-3h6l1 3h2l1-3 6 1 7-2 6-1v-2l-4-2 4-2 8 1h12l4-1 13-1 20-6 1-1h5l1-4 17-6 16-2-2 2-6 2 12-2 13-3 6-1 1 2 4-1v-2l3 1 10-3 12-1 8-2 1 2 16-3h8v2l5 1 7 4 8 1-2 4 3 4 7 2-1 10-2 7-2 4-9 9-5 6-10 8h-2l-1 2-5 3-3 3h-6l-2 4-5 2-1 1 9-2 4-2h3v-2l10-2v-2l7-3 17-8 8-3 13-7 4-4 16-10 6-4 11-7 12-9 11-9 3-1v-2l4-1v-2h2v-2l5-4h2v-2l5-4 5-3 7-8 10-9 3-5 6-4 5-8 3 1-11 14-13 12-17 17-8 7-10 9-14 11-21 14-10 6-5 5-22 12-14 8-24 11-16 6-2 2-13 2-22 7-31 8-14 3-18 2h-36l-22-3-32-8-29-8-26-8-27-11-23-11-12-7-8-4-4-4v-2l-4-1-8-5-7-6-5-2-5-4v-2l-6-3v-2l-5-2-1-3-4-2-26-24-13-14-10-13-14-19-7-11-8-15z" fill="#14B6D7"/>
<path transform="translate(60,787)" d="m0 0 1 4-4 16-2 13v18l3 16 11 33 3 1 7 12 4 5v2h2l14 16 3 5 5 3v2l6 2 16 8 11 5 12 4 19 9 16 10 8 7 2 3 1 5v84l1 13 8 23 6 11 7 10 2 4h2v2h2v2l4 2v2l4 2v2h3v2l5 2 14 7 8 1h3l-5-6-3-6 5-25 9-7 3-7 5-5 5-6 2-6 4-2h2 3l1-4 4 1v4l4 2 2 3 2 1 1-3 8-10 3-1 1 2h6l4 9 1 2h6l2-18 1-4 1-14v-12l2-7 1-5h2l1-5 2-2 3 9 2-2 1 5h2v35l-2 15 1 9 3 4 4 6 1-1 2-74v-6l3 2 1 41 1 1 1-61 4-11 4 3 2 8 5 1 3-5 3-8 4 2v3h2l2 7 4-2 2-9 5-1v2l13 1 4 1h3 2v2l4 2 3 5 3 8 1 4 3 16v11l5 2 2-6 5-6 6-14 7-21 4-17 5-33 4-23 2-13 1-16 3 3 1 2v14l-9 59-4 19-2 11-4 12h-2l-2 11-3 8-3 3-8 17-8 15-10 16-7 10-8 7-7 8-9 8-11 9-17 12-13 8-14 6-14 4-13 3-24 2h-20l-18-3-12-4-10-4v-2l-5-2-4-4-6-3-9-10-5-4-7-10-3-2-2-8-4-8-5-16-1-5v-42l2-24v-28l-3-7-4-4-16-7-32-10-15-6-17-9-9-7-5-5-4-7-1-4-10-14-8-13-6-12-7-21-4-16-1-7v-25l4-18z" fill="#14B6D7"/>
<path transform="translate(1270,37)" d="m0 0h26l18 4 13 5 13 8 12 11 10 13 8 16 4 16v22l-8-6-11-4-16-5-14-7-7-3v-2l-7-1-9-3-12-1-17 3-12 4-15 8-11 6-7 7-5 2-5 5-13 11-10 9-11 9-16 13-3 1v2l-13 10-14 7-5 1h-7l-4-4 1-13 2-13 7-19 8-16 8-13 4-7 3-1 2-5 6-8 9-10 7-8 13-12 13-9 16-9 16-6 17-5z" fill="#FCFEFE"/>
<path transform="translate(219,664)" d="m0 0h53l17 2 19 4 4 1v2l12 3 25 10 7 4 4 5-1 6-4 5-6 12-6 5-3 1h-10l-13-1-3-1-14-1-7-2v-2l-26 1-28 4-19 5-21 9-14 8-13 8-16 8-17 6-18 5-8 11h-2v2l-10 8-8 2-10-3-9-3-2-4v-7l5-21 8-18 2-1 3-5 3-1 2-4 14-14 14-11 10-7 16-9 21-10 14-5 16-4z" fill="#FBFDFE"/>
<path transform="translate(1476,272)" d="m0 0 5 2 13 10 15 14 15 15 8 10 8 15 4 13 3 19v14l-3 19h-2l-3 12-4 9-3 3-1 2h-2l-2 4-9 14-7 8-3 5h-2l-2 4h-7l-10-4h-10l-23 5h-3v2l-9 2-14 2-35 2-28 1-16 5-7 2-11 2-2 1h-23l-6-1-4 1h-14l-13 2h-5l-2 4-4 2-9 1-1-2-7 1-1 1-17 2-4 1-2-3v-3h-12l-3-4-3-11h-2l-7-22-4-10v-2h-2l-5-11-3-7-8-18-4-8v-2h-2l-1-5h-2l-2-4v-4h-2v-3h-2l-1-5h-2v-3l-4-2-5-9v-3h-2v-3l-4-2-2-5-3-3-3-6-3-5-3-6v-2h-2l-2-10 3 3 4 9 8 14 5 6 3 6 10 15v2h2l5 8 5 6v2h2l4 6 5 8 3 4v2l3-1 4 2h9l16 5 4 1 4-1 8 1 9 2 16 6 11 4 8 3 15 4 9 3 21 3 13 3 12 2 7 2 12 2 14 1 11 3 13 5h14l2 1h21l9-1 7-3 26-10 9 1 7 1 8-1 10-6 12-7h3v-2l8-7 4-9 4-13 2-10 1-7v-20l-3-16-6-15-9-14-15-16-2-4-3-1-5-5v-2l-4-2-9-8-10-7z" fill="#12CDE5"/>
<path transform="translate(1385,220)" d="m0 0 3 1v4l3 1v2l4 2 14 10 13 7 5 1v2l9 2 18 7 21 11 5 5 13 10 6 5 5 5 3 7 4 5 8 8v6l-4 4-12 8h-7l-16-8-18-11-12-6-13-6-24-9-17-8-10-9-5-8-4-11v-18l4-13z" fill="#DEFEFE"/>
<path transform="translate(1270,37)" d="m0 0h6l-2 2-21 4-19 7-9 5-13 9-12 9-12 11-4 6h3l1 5-1 11 3 7 2 3 9 2 7 5 1 3 4 1 40-20 3 1 1-3h6l-3 3-14 7-11 6-7 7-5 2-5 5-13 11-10 9-11 9-16 13-3 1v2l-13 10-14 7-5 1h-7l-4-4 1-13 2-13 7-19 8-16 8-13 4-7 3-1 2-5 6-8 9-10 7-8 13-12 13-9 16-9 16-6 17-5z" fill="#DCFEFE"/>
<path transform="translate(847,276)" d="m0 0 16 1 7 2 8 5 3 5 3 16 1 10v12l-5 9-6 5-8 3h-18l-14-2-10-6-6-7-6-11-2-7v-11l4-10 7-6 11-5z" fill="#FCFEFE"/>
<path transform="translate(149,686)" d="m0 0h2l-1 3-8 5-3 1v2l-6 4-11 10-1 7-1 10-1 3v9l5 10 5 9 2 1h12l10-1 3 1-17 6-18 5-8 11h-2v2l-10 8-8 2-10-3-9-3-2-4v-7l5-21 8-18 2-1 3-5 3-1 2-4 14-14 14-11 10-7z" fill="#DCFEFE"/>
<path transform="translate(1385,220)" d="m0 0 3 1v4l3 1v2l4 2 14 10 2 2h-5l-8-5-4 1-3 12-1 3v18l4 7 8 6 15 7 18 5 10 3 10 4h9l1-17 7-1 9 2-5-8-1-3-4-1-5-5-3-2v-2l-6-2-16-7v-2l9 2 22 11 9 8 11 8 7 6 5 5 3 7 4 5 8 8v6l-4 4-12 8h-7l-16-8-18-11-12-6-13-6-24-9-17-8-10-9-5-8-4-11v-18l4-13z" fill="#95F6FA"/>
<path transform="translate(640,328)" d="m0 0 3 1-11 7-11 6-13 8-25 15-16 8-19 12-26 20-13 9-17 9-9 3-7-1 2-10 11-13 2-2 2-5 11-12 9-11 17-16 14-14v3l-3 4v6l5 1 5 3 8 2h13l21-7 23-12 21-12z" fill="#78FDFE"/>
<path transform="translate(414,1011)" d="m0 0 1 3 5 2 3 2 4-2 4 1 1 2 2-1v3l3 1 1 6v38l-2 12-3 1h-3l-3 1v-2h2v-2l-3-1v-2l-4-1-2-9h-1l-1 9-3 3-4 2-1-2v-11l-3-1 1-2-2 1-1 16-4 3-4 5-1 2-4 1-2-5h-1v-38h1l2-19 5-12h4l2 2v3h2l1 6 1-4h2l2-9z" fill="#1299BF"/>
<path transform="translate(68,745)" d="m0 0h4l1 6-2 2-1 4h2l2-4 4-6 1 2-3 6h-2l-2 6-10 23-5 15-3 15v25l3 16 7 22 6 15 10 16 11 15 1 6 4 6 12 9 19 10 25 9 25 8 14 7 4 6 1 4v28l-2 24v42l5 18 4 9 2 6-3-3-6-12-4-13-1-9v-25l3-46v-16l-3-9-8-5-10-4-27-8-18-6-11-5-8-4-11-7-12-11-7-8-6-9-6-8-6-9-10-16-3-15 1-18-1-1-1-37 5-26 3-13 2-4 2-6 1-4h2l1-5z" fill="#1A6897"/>
<path transform="translate(833,267)" d="m0 0h23l15 2 16 7 13 9 24 14 1 2-5-2-14-8-8-3-5-2 2 5 5 8 1 11-4 11-6 9-5 4-7 8-8 4-4 1h-19l-11-4v-1h7l4 1h18l10-4 5-6 3-6v-12l-2-14-2-12-3-5-9-5-13-2h-8l-15 3-14 7-4 5-3 8v11l4 11 6 9 1 2-4-2-7-9-1-6h-2l-2-8v-12l3-10v-7l-4-2h-10l-31 6-36 8-16 5-17 7-17 9-3-1 19-10 19-8 24-7 52-11 29-6z" fill="#D7FEFE"/>
<path transform="translate(1286,20)" d="m0 0 14 1 19 4 17 6 11 6-3 1h-5l-3-2-2 8 3 3 2 4 5 3v2h3l6 7 4 5v2h2l8 11 2 4 4 4 4 10 3 14 3 31 2 51 3 16 3 7 2 6 4 2 6 5v3l4 2 3 3 5 2 1 3-5-2-11-7-9-7-3-3-4-10-3-17-2-27-3-49-2-16-4-15-4-7-4-4-8-11-8-9-9-7-10-6-16-6-15-3h-26l-20 4-27 9-15 8-12 8-12 11-8 7-9 11-1-3 9-11 11-11 15-11 5-1 1-3 7-4h4v-2l7-3h3l1-3 5-2v2l21-7 4-2 17-2 6-3-1-8z" fill="#1C719E"/>
<path transform="translate(1067,334)" d="m0 0 6 4 14 16 10 13 14 21 4 7v4l-6-1-13-5-15-3-14-7-13-8-27-15-14-9-19-12 2-1 17 10 13 8 11 4h8l14-6 6-5 3-2z" fill="#79FDFE"/>
<path transform="translate(601,293)" d="m0 0 2 1-4 4-6 4-4 2-5 6-7 6v7l5 11 8 5 11 3 8-1 15-6 19-10 18-9 9-3 5-1-5 4-24 12-7 2-22 12-16 9-13 6-16 5h-13l-10-3-8-4-1-6 4-5 4-7 5-4 5-5 12-11 4-2 5-5 10-9 7-4h2v-2z" fill="#B5FEFE"/>
<path transform="translate(58,735)" d="m0 0 5 1-3 3v6l-1 6h2l2-7 4-3 4 1-1 3-4 4-6 13-2 6-3 7-7 36 1 37 1 3-1 17 4 16v4l-5-1-3 2-2-2v-4l-1-3-4 1-3-17-2-23v-18l1-18 1 4 3-3 1-8 4-10 3-13 1-2-1-2 3-12 2-6 2-1-1-3 1-4 3-9z" fill="#335981"/>
<path transform="translate(219,664)" d="m0 0h53l17 2 19 4 4 1v2l12 3 25 10 7 4 4 5-1 6-4 5-6 12-6 5-3 1h-10l-13-1-3-1-14-1-7-2 1-2 12 1h18l6-2-2-5-6-16 1-5 7-3-2-4-8-4v-2l-7-1-16-4-9-2-27-2-10-1h-34l-4 1h-13v-1z" fill="#DDFEFE"/>
<path transform="translate(1441,255)" d="m0 0 9 2 18 9 3 5 11 8 8 6 4 5 4 1 5 10v8l-9 11-4 3-10-2-17-8-19-10-30-11-2-2 5 1 18 5 10 3 10 4h9l1-17 7-1 9 2-5-8-1-3-4-1-5-5-3-2v-2l-6-2-16-7z" fill="#B7FEFE"/>
<path transform="translate(1317,43)" d="m0 0 5 1 12 6 8 6 10 9 10 13 8 16 4 16v22l-8-6-11-4-16-5-14-7-7-3v-2l-7-1-9-3-12-1-17 2 2-1 1-3 26-1 24 7h12l11-12 2-1h9l1-4-6-14-4-5-5-5-11-9-2-1v-2l-10-3-6-4z" fill="#D9FEFE"/>
<path transform="translate(106,716)" d="m0 0v3l-10 10-6 10-1 10 4 10 5 9 3 3 9 1 8-4 17-3 4 1-18 5-8 11h-2v2l-10 8-8 2-10-3-9-3-2-4v-7l5-21 8-18 2-1 3-5 3-1 2-4z" fill="#B6FEFE"/>
<path transform="translate(544,342)" d="m0 0v3l-3 4v6l5 1 5 3 8 2h13l21-7 10-5 2 1-16 9-24 11-15 6-19 7-17 2h-7v-2h2l3-10 7-7 8-7z" fill="#95F5F9"/>
<path transform="translate(492,900)" d="m0 0 3 3 1 2v14l-9 59-4 19-2 11-4 12h-2l-2 11-3 8-3 3-8 17-8 15-10 16-7 10-8 7-7 8-9 8-11 9-17 12-13 8-14 6-14 4h-6v-2l13-4 16-7 8-5 13-9 10-7 11-9 12-11 5-5 4-5 3-7 4-4 1-3 6-4 5-9 6-9 6-12 10-19 9-25 5-19h2l1-11 3-21 6-40 1-9h-2z" fill="#1299BF"/>
<path transform="translate(1439,253)" d="m0 0h7l7 3 13 4 5 4 4 2 5 3 2 1v2l4 1 5 4 3 3 2 1v2l4 1v2l4 2 2 4 4 2 6 7 3 5 10 10 7 10 4 8 4 10 4 15v32l-4 19-7 19-7 18-5 11-7 14-10 14-8 9h-2v2l-8 7-11 10-14 10-13 8-12 6-19 7-19 4-23 2-23-1-22-3-18-4-27-7-3-2 7 1 25 6 20 4 15 2 13 1h22l18-2 16-4 16-6 17-9 15-10 16-13 16-16 10-14 9-16 11-25 8-19 3-11 3-19v-14l-3-19-5-15-7-13-12-14-19-19-11-9-11-8-14-8-17-8-8-3z" fill="#1B6897"/>
<path transform="translate(1081,816)" d="m0 0 3 1-11 14-13 12-17 17-8 7-10 9-14 11-21 14-10 6-5 5-22 12-14 8-24 11-16 6-2 2-13 2-22 7-31 8-14 3-18 2h-36l-22-3-32-8-29-8-26-8-7-3 3-1 29 9 38 10 12 3 17 4 26 3h21l20-2 25-5 36-10 29-10 21-9 16-8 19-10 5-3 4-4 16-10 6-4 11-7 12-9 11-9 3-1v-2l4-1v-2h2v-2l5-4h2v-2l5-4 5-3 7-8 10-9 3-5 6-4z" fill="#148CB4"/>
<path transform="translate(60,787)" d="m0 0 1 4-4 16-2 13v18l3 16 9 27 10 19 9 12 8 8 3 6 4 7 10 8 21 10 11 4 28 10 14 7 8 6 3 5 1 4v33l-1 21v37l3 17 7 17 9 13 9 11 11 10-2 1-5-3-7-8-6-5-7-10-3-2-2-8-4-8-5-16-1-5v-42l2-24v-28l-3-7-4-4-16-7-32-10-15-6-17-9-9-7-5-5-4-7-1-4-10-14-8-13-6-12-7-21-4-16-1-7v-25l4-18z" fill="#1299BF"/>
<path transform="translate(1542,403)" d="m0 0h1l-1 8-6 15-12 27-8 16-7 11-9 11-17 17-17 13-18 11-17 8-17 5-15 3-11 1h-22l-20-2-23-4-22-5-19-5-10-2-36-12-19-8-3-3 6 1 19 8 15 5 28 8 32 7 21 4 22 3 27 1 17-1 26-6 4-2h4v-2l11-5 10-6 9-5 13-10 10-9 12-12 10-15 10-19 8-18 9-17z" fill="#1298BE"/>
<path transform="translate(833,267)" d="m0 0h23l15 2 16 7 13 9 24 14 1 2-5-2-14-8-8-3-5-2 2 5 5 8 1 11-4 11-6 9v-3l7-14v-12l-6-10-8-8-11-6-10-4h-25l-13 5-10 6-6 9-1-4 1-3v-7l-4-2h-10l-31 6-36 8-16 5-17 7-17 9-3-1 19-10 19-8 24-7 52-11 29-6z" fill="#97F6FA"/>
<path transform="translate(1067,334)" d="m0 0 6 4 14 16 5 7 1 6-2 1h-16l-5 3h-9l-15-3-16-8-9-4-21-13-6-4 2-1 17 10 13 8 11 4h8l14-6 6-5 3-2z" fill="#92F5F9"/>
<path transform="translate(1138,137)" d="m0 0 1 2-5 14-1 13 3 5 9 6 3 1h8l14-7 8-5 6-5 4-5 5-4 4-2 1-2 3 1-13 12-20 16-3 1v2l-13 10-14 7-5 1h-7l-4-4 1-13 2-13 7-19z" fill="#B6FEFE"/>
<path transform="translate(1038,307)" d="m0 0h2l5 5 10 9 12 12 2 10-1 5-8 6-12 6-3 1h-8l-13-5-14-9 3-1 8 3h9l10-6 10-9 4-3-1-6-6-8v-2l-4-2-5-5z" fill="#B6FEFE"/>
<path transform="translate(545,338)" d="m0 0 3 1-27 27-8 7-9 11-11 12-2 5-9 10-11 17-13 24-12 27-8 21-4 11-6 25-5 31-2 19v64h-1l-3-22v-47l6-36 4-18 4-15 9-27 13-30 11-21 9-14 8-11 2-2 2-5 10-11 2-4h2v-2l5-5 14-15 7-8 9-9h3l2-4z" fill="#12CDE5"/>
<path transform="translate(225,661)" d="m0 0h38l21 2v2l11 1v1l-12-1-11-1h-53l-19 3-16 4-14 5-25 12-17 10-16 13-10 9-13 13-2 4h-2l-1 4-3 1 2-4 6-9 7-8h2v-2h2v-2h2l1-3 6-5 2-6 2-3h2v-2h2v-2l11-5 3-1v-2l12-6 21-7 11-5 16-5 11-2 2-1z" fill="#1A6E9C"/>
<path transform="translate(1385,220)" d="m0 0 3 1v4l3 1v2l4 2 14 10 2 2h-5l-8-5-4 1-3 12-1 3v18l4 7 8 6 10 5v1h-6l-13-7-9-9-6-14-1-3v-18l4-13z" fill="#B6FEFE"/>
<path transform="translate(300,668)" d="m0 0h7l20 6 20 8 15 8 2 4 7 3 4 5-1 5-3 5-11 7-11 6-5 2-21-2-13-2-13-1-7-2-15-2v-1l13-1 5 1v2l21 2 3 1 13 1h10l6-3 4-5 6-12 3-4-1-5-2-4-5-2-19-8-20-7v-2l-7-1-5-1z" fill="#B6FEFE"/>
<path transform="translate(1466,493)" d="m0 0h15l1 4-2 5-4 4h-2l-1 3-4 1v2l-16 8-11 1-3-1v-6l9-13 7-6 2-1z" fill="#12CEE6"/>
<path transform="translate(70,887)" d="m0 0 3 3 6 10 4 5v2h2l14 16 3 5 5 3v2l6 2 16 8 11 5 12 4 19 9 16 10 8 7 2 3 1 5v46l-1 9h-1v-54l-3-7-5-5-10-6-15-6-27-9-28-14-8-7-6-11-14-16-8-13z" fill="#15B7D8"/>
<path transform="translate(1238,19)" d="m0 0h43l5 1-3 2h-2l2 8-7 4-17 2-6 3-7 2-9 3h-3l2-4 5-2h2v-2l7-1v-2h11v-1l-3-2-4-1h-8l2-2-12-1-1-3 1-2-4-1z" fill="#335A82"/>
<path transform="translate(1144,123)" d="m0 0h2l-2 5-6 10-9 21-9 30-3 14-3 21-1 19v40l3 22 1 3v7l-2-4-1-8h-2l-4-33v-24l2-29 4-22 4-14h2l1-7 4-14 8-16 3-8z" fill="#159CC1"/>
<path transform="translate(1439,253)" d="m0 0h7l7 3 13 4 5 4 4 2 5 3 2 1v2l4 1 5 4 3 3 2 1v2l4 1v2l4 2 2 4 4 2 6 7 3 5 10 10 7 10 4 8 4 10 4 15v32l-4 19-5 14h-2l3-10 3-11 3-19v-14l-3-19-5-15-7-13-12-14-19-19-11-9-11-8-14-8-17-8-8-3z" fill="#1B6897"/>
<path transform="translate(1168,548)" d="m0 0h1l3 30v33l-4 35-4 22-2 12-5 16-7 21-2 1-1 5-7 14-4 6-5 2 2-6 8-16 11-25 8-24 3-13 4-26 2-19v-44l-1-11z" fill="#23628F"/>
<path transform="translate(814,270)" d="m0 0h14v5l-8 4-5 5-6 9-1-4 1-3v-7l-4-2h-10l-31 6-36 8-16 5-17 7-17 9-3-1 19-10 19-8 24-7 52-11z" fill="#7FFDFE"/>
<path transform="translate(472,1025)" d="m0 0h1v6l-3 8-3 3-8 17-8 15-10 16-7 10-8 7-7 8-9 8-11 9-17 12-13 8-14 6-14 4h-6v-1l12-3 15-6 6-3 16-10 16-12 13-11 15-15 2-3h2l2-4 4-6h2l2-5 6-10 8-14 13-27z" fill="#1B6897"/>
<path transform="translate(1131,151)" d="m0 0 1 4-3 10v13l4 6 5 4h7l14-7 10-8 2 1-4 4h-2v2l-13 10-14 7-5 1h-7l-4-4 1-13 2-13z" fill="#79FEFE"/>
<path transform="translate(647,942)" d="m0 0 10 2 22 7 38 10 12 3 17 4 26 3h21l20-2 25-5 36-10 22-7v2l-24 8-28 8-27 6-18 2h-36l-22-3-32-8-29-8-26-8-7-3z" fill="#1299BF"/>
<path transform="translate(1476,272)" d="m0 0 5 2 13 10 15 14 15 15 8 10 8 15 4 13 3 19v14l-3 19h-1l-1-12-1-2 1-6v-20l-3-16-6-15-9-14-15-16-2-4-3-1-5-5v-2l-4-2-9-8-10-7z" fill="#12AECF"/>
<path transform="translate(1068,834)" d="m0 0 2 4-5 6-8 7-16 16-8 7-6 5h-2v2l-20 14-13 8-7 3-6 2 3-3 19-12 11-8 16-13 12-11 10-9z" fill="#2D5C86"/>
<path transform="translate(83,742)" d="m0 0 1 4-3 7-2 15v13l9 6 4 2 8-1 11-9 2-3h2l2-4 4-4 14-3 4 1-18 5-8 11h-2v2l-10 8-8 2-10-3-9-3-2-4v-7l5-21z" fill="#96F6FA"/>
<path transform="translate(1370,86)" d="m0 0 3 3 4 10 3 14 3 31 2 51 3 16 3 7 2 6 4 2 6 5v3l4 2 3 3 5 2 1 3-5-2-11-7-9-7-3-3-4-10-2-19-1-40-3-40-5-21z" fill="#305D85"/>
<path transform="translate(604,924)" d="m0 0 6 2 26 12 24 9 26 8 39 10 16 4v1h-16l-10-3-13-4-9-2-5-2-8-2-14-4-25-10-9-4-11-5-3-1v-2l-7-1-7-4z" fill="#2A5E89"/>
<path transform="translate(157,678)" d="m0 0 1 2-17 9-7 4-1 3-11 8-10 8-10 9-13 13-2 4h-2l-1 4-3 1 2-4 6-9 7-8h2v-2h2v-2h2l1-3 6-5 2-6 2-3h2v-2h2v-2l11-5 3-1v-2l12-6z" fill="#335981"/>
<path transform="translate(1385,220)" d="m0 0 3 1v4l3 1v2l3 1-2 1-5 1-2 5-2 17 1 11 3 9 7 8 15 8-3 1-13-7-9-9-6-14-1-3v-18l4-13z" fill="#78FDFE"/>
<path transform="translate(1506,302)" d="m0 0 7 6 6 7v6l-4 4-12 8h-7l-16-8-3-3 9 3 8 2 5-2 6-7 3-2 1-5z" fill="#7CFFFF"/>
<path transform="translate(345,681)" d="m0 0h5v2l12 3 12 7 8 5 7 10v3l2 1 6 21 1 13-2-3-11-28-6-11-7-7-15-9-12-6z" fill="#2F5B84"/>
<path transform="translate(219,664)" d="m0 0h53l17 2 19 4 4 1v2l2 1-4 1-22-5-27-2-10-1h-34l-4 1h-13v-1z" fill="#BFFBFD"/>
<path transform="translate(492,904)" d="m0 0 1 2h2v9l-7 48-3 19-1 5h-2l-2 12-1 3h-2l1-8 4-20 4-30 4-18z" fill="#14B1D3"/>
<path transform="translate(483,405)" d="m0 0v3l-7 9-9 14-9 16-10 21-11 28-7 22-4 16-4 21-4 26h-1v-9l4-24 6-28 7-23 9-24 5-12 8-16 11-19 9-13z" fill="#1B6897"/>
<path transform="translate(1542,403)" d="m0 0h1l-1 8-6 15-12 27-8 16-7 11-9 11-17 17-5 4-2-1 24-24 10-15 10-19 8-18 9-17z" fill="#1299BF"/>
<path transform="translate(424,541)" d="m0 0h1v14l-3 22-1 9v64h-1l-3-22v-47l6-36z" fill="#13C1DE"/>
<path transform="translate(1081,816)" d="m0 0 3 1-11 14-13 12-17 17-5 2-11 10-5 4h-2v2l-12 9-16 11-13 8-12 7-2-1 7-5 9-5 9-6 11-7 12-9 11-9 3-1v-2l4-1v-2h2v-2l5-4h2v-2l5-4 5-3 7-8 10-9 3-5 6-4z" fill="#15B7D8"/>
<path transform="translate(195,1029)" d="m0 0h1v49l3 17 7 17 9 13 9 11 11 10-2 1-5-3-7-8-6-5-7-10-3-2-2-8-4-8-5-16-1-5v-42l1-10z" fill="#1299BF"/>
<path transform="translate(1144,123)" d="m0 0h2l-2 5-6 10-9 21-9 30-3 14-3 21-1 16h-1v-29l2-16 4-14h2l1-7 4-14 8-16 3-8z" fill="#13B3D2"/>
<path transform="translate(875,274)" d="m0 0h8l14 9 22 13 6 4-2 1-17-10-8-3-5-2 2 5 5 8 1 11-4 11-6 9v-3l7-14v-12l-6-10-8-8-8-5z" fill="#84FBFD"/>
<path transform="translate(1367,85)" d="m0 0 3 1 5 12 4 18 3 40 1 40 1 13-2-4-2-17-3-53-2-25-4-17z" fill="#1B6897"/>
<path transform="translate(1439,253)" d="m0 0h7l7 3 13 4 5 4 4 2 5 3 2 1v2l4 1 5 4 3 3 2 1v2l4 1v2l4 2 2 4 4 2 6 7-1 2-14-14-6-5-6-3-11-8-14-8-17-8-8-3z" fill="#2A5E88"/>
<path transform="translate(887,951)" d="m0 0 4 1-9 2v2l-9 3h-6v2l-17 5-13 2-26 5-21 2h-19l-25-3-4-2h7l14 2h36l18-2 27-6 35-10z" fill="#1B6897"/>
<path transform="translate(1371,100)" d="m0 0h1l2 10v22l-8-6-11-4-16-5-3-3h4v2l18 2 9-3 1-2h2z" fill="#7AFEFE"/>
<path transform="translate(1365,83)" d="m0 0 4 4 3 6 4 17 3 40 2 38 3 21v6l-2-4-3-18-2-20-2-44-1-14-4-18-5-12z" fill="#12BEDB"/>
<path transform="translate(1539,422)" d="m0 0 1 3-6 21-8 20-1 3h-2l-2 5-7 9h-2l-2 4-3-1 10-14 8-16z" fill="#345981"/>
<path transform="translate(1169,572)" d="m0 0h1v44l-4 34-4 20-6 20-10 24-7 15h-1v-5h2l2-9 1-2h2l3-9 10-27 4-18 4-26 2-21z" fill="#1299BF"/>
<path transform="translate(799,273)" d="m0 0h5l-4 2-5 2-31 6-36 8-16 5-17 7-17 9-3-1 19-10 19-8 24-7 52-11z" fill="#88FAFC"/>
<path transform="translate(1152,478)" d="m0 0 2 3 3 10 7 31 4 25 1 14v51h-1v-48h-2l-1-16-6-37-7-29z" fill="#13B3D4"/>
<path transform="translate(496,835)" d="m0 0 8 6 22 22v2l4 1 13 12 10 8 6 8-4-2-4-3v-2l-6-3v-2l-5-2-1-3-4-2-26-24-13-14z" fill="#167EA8"/>
<path transform="translate(787,228)" d="m0 0h66l21 2 22 3v1h-20l-25-2-11-2-53-1z" fill="#AFFCFD"/>
<path transform="translate(1131,151)" d="m0 0 1 4-3 10v13l4 6 5 4h7l9-4 2 1-10 6-10 3-7-3-4-8 1-12 2-12z" fill="#94F6FA"/>
<path transform="translate(492,900)" d="m0 0 3 3 1 2v14l-9 59-4 19-2 11-4 12h-2l-1 5-1-3 7-21 6-29 5-37 4-29h-2z" fill="#1B6897"/>
<path transform="translate(377,702)" d="m0 0 5 5 9 20 8 22v2h2l1 9h2l1 8h2l4 10v2h-2l-1-5h-2l-11-27-5-14-3-7-6-17-4-6z" fill="#12B8D7"/>
<path transform="translate(79,924)" d="m0 0 3 2v2l3 1 7 8 12 9 9 5 10 5 16 6v1h-7l-10-4-12-5-14-8-1-3-4-2-7-8-5-7z" fill="#345981"/>
<path transform="translate(74,755)" d="m0 0 2 1-5 12-5 16-3 9-2 7-3 12-1 8-1 1-1 17h-1v-18l4-22 4-16 9-21z" fill="#13C3DF"/>
<path transform="translate(395,1028)" d="m0 0 1 3h2v29l-3 4-3-4v-21z" fill="#1B6897"/>
<path transform="translate(545,338)" d="m0 0 3 1-27 27-8 7-9 11-11 12-7 8-2 1 2-4 9-10 2-4h2v-2l5-5 14-15 7-8 9-9h3l2-4z" fill="#1C6795"/>
<path transform="translate(793,225)" d="m0 0h17l49 2 3 2h-75l-15 1 1-2 13-2z" fill="#1B8FB3"/>
<path transform="translate(300,668)" d="m0 0h7l20 6 20 8 15 8v1h-6l-16-8-20-7-8-3v-2l-7-1-5-1z" fill="#4ADDEC"/>
<path transform="translate(130,694)" d="m0 0 3 2-11 8-10 8-10 9-13 13-2 4h-2l-1 4-3 1 2-4 6-9 7-8h2v-2h2v-2h2l1-3 11-9 9-7z" fill="#197CA7"/>
<path transform="translate(1225,47)" d="m0 0 3 2-16 8-15 9-13 12-8 7-9 11-1-3 9-11 11-11 15-11 5-1 1-3 7-4h4v-2z" fill="#1696BB"/>
<path transform="translate(379,1015)" d="m0 0 2 1v11h2l1-2 1 11-1 18-2-4-1 6h-1l-1-26-1 16h-1l-1-8 1-18z" fill="#129ABF"/>
<path transform="translate(1540,350)" d="m0 0h2l4 11 1 9v14l-3 19h-1l-1-12-1-2 1-6v-20z" fill="#12AFD0"/>
<path transform="translate(366,695)" d="m0 0 5 2 4 5-1 5-3 5-11 7-11 6-2-1 7-7 8-6 7-5v-6z" fill="#7AFEFE"/>
<path transform="translate(1117,315)" d="m0 0 3 3 4 9 8 14 5 6 3 6 10 15v2h2l2 3-1 4-1-3h-2v-3l-4-2-5-9v-3h-2v-3l-4-2-2-5-3-3-3-6-3-5-3-6v-2h-2z" fill="#13B1D1"/>
<path transform="translate(838,265)" d="m0 0h18l13 2 13 5 5 3-2 1-14-6-15-2h-23l-25 4-9 2h-5l4-2 17-4 11-2z" fill="#B8FFFF"/>
<path transform="translate(244,1154)" d="m0 0 9 3 8 3 25 4h28l21-2-2 2-16 2-13 1h-20l-18-3-12-4-10-4z" fill="#1A719E"/>
<path transform="translate(1336,36)" d="m0 0 12 2 11 7-3 4-2 1-5-3-8-3-4-1h-3l1-5z" fill="#325D85"/>
<path transform="translate(457,777)" d="m0 0 4 1 5 13 11 16v2h2l7 10 10 12-1 4-13-16-10-14-7-11-8-15z" fill="#1584AE"/>
<path transform="translate(1386,227)" d="m0 0 7 1 1 2-7 1-2 5-2 17 1 11 3 9 7 8 15 8-3 1-13-7-9-9-4-15v-11l3-16z" fill="#97F6FA"/>
<path transform="translate(187,667)" d="m0 0m-4 1h11l-3 2-16 5-18 8-21 11-3 1 2-4 6-3 19-10 15-7z" fill="#1882AB"/>
<path transform="translate(948,924)" d="m0 0 3 1-12 7-24 11-16 6-2 2h-6l2-2h3v-2l26-11 10-5 9-3z" fill="#177CA7"/>
<path transform="translate(1214,508)" d="m0 0 6 1 19 8 15 5 20 6 1 3-10-2-29-10-19-8z" fill="#1584AE"/>
<path transform="translate(358,691)" d="m0 0 5 1 7 8v6l-10 8-9 7-4 5-7 1-11-1v-1l14-1 6-4 13-13 4-3v-5l-8-7z" fill="#95F6FA"/>
<path transform="translate(212,660)" d="m0 0h33v1l-32 2-9 1-6 2-15 3-8 3-3-1 10-5 14-4z" fill="#345981"/>
<path transform="translate(492,904)" d="m0 0 1 2h2v9l-7 48h-1v-10l1-13 1-11 2-13z" fill="#13A6CA"/>
<path transform="translate(1369,94)" d="m0 0 2 3v14l-1 2h-2l-1 3-9 3-11-1-7-2 1-2 3 1h13l5-3h2l2-4 3-4z" fill="#B6FEFE"/>
<path transform="translate(421,652)" d="m0 0h1l5 31 4 17 4 16 4 13-1 3-6-18-7-27-4-24z" fill="#13B9D8"/>
<path transform="translate(672,312)" d="m0 0 3 1-15 8-14 7-7 2-13 7-2-1 5-4 32-16 9-3z" fill="#A3FCFD"/>
<path transform="translate(472,1025)" d="m0 0h1v6l-3 8-3 3-8 17-8 15-5 8h-2l2-5 6-10 8-16 9-19z" fill="#1B6897"/>
<path transform="translate(1081,816)" d="m0 0 3 1-11 14-13 12-17 17-2-1 9-9 7-8 10-9 3-5 6-4z" fill="#13A5C9"/>
<path transform="translate(83,742)" d="m0 0 1 4-5 11-4 17v7l3 6 12 4 9 1-4 2-7-1-13-4-3-5v-7l5-21z" fill="#7CFDFE"/>
<path transform="translate(874,340)" d="m0 0 2 1 4-1-3 3-10 4h-19l-11-4v-1h7l4 1h18z" fill="#A8FCFD"/>
<path transform="translate(203,730)" d="m0 0m-2 1 4 2-17 9-13 8-7 4-2-1 5-5 13-8 11-6z" fill="#C8FDFE"/>
<path transform="translate(460,861)" d="m0 0 5 5 9 11 14 18v2h2l2 3-1 4-9-10-7-11-2-2v-3l-4-2-1-3-3-2v-3l-4-2z" fill="#14ADD0"/>
<path transform="translate(43,839)" d="m0 0h5l1 9 1 3v6l-3 3-2-7 1-8h-2v3h-2l-2 2-2-3 1-5z" fill="#344165"/>
<path transform="translate(1250,33)" d="m0 0h9l2 2-8 4-7 2-9 3h-3l2-4 5-2h2v-2l7-1z" fill="#345880"/>
<path transform="translate(702,961)" d="m0 0 11 1 19 5 9 2v1h-16l-10-3-13-4z" fill="#2B5E88"/>
<path transform="translate(1409,290)" d="m0 0 5 1 25 9 23 11 7 4 1 3-5-2-16-9-15-6-21-8z" fill="#89FAFC"/>
<path transform="translate(192,1023)" d="m0 0h1v11l-1 19v25l2 12 2 6-1 4-4-12-2-10 1-33z" fill="#345981"/>
<path transform="translate(1468,267)" d="m0 0 5 2 8 7 11 8 7 6 5 5-1 4-4-3-1-5-5-1-6-7-9-6-10-7z" fill="#6DF9FD"/>
<path transform="translate(887,951)" d="m0 0 4 1-9 2v2l-9 3h-6v2l-17 5h-6v-2l35-10z" fill="#226390"/>
<path transform="translate(56,820)" d="m0 0h1v13l2 18 6 18 1 5-2 1-7-21-2-9v-24z" fill="#12C7E2"/>
<path transform="translate(448,845)" d="m0 0 7 6 20 25 11 14 4 5v2h-2l-12-16-14-17-6-8-8-9z" fill="#1B6897"/>
<path transform="translate(1337,52)" d="m0 0 6 1 1 3h3l6 7 4 5v2h2l8 11 1 4-4-2-9-13-9-10-9-7z" fill="#1787AF"/>
<path transform="translate(360,994)" d="m0 0h4l1 10-3 27h-1l-1-24z" fill="#3AF5FD"/>
<path transform="translate(1371,100)" d="m0 0h1l1 17-2 2-4 1h-14l-11-2-6-3 4-1v2l18 2 9-3 1-2h2z" fill="#94F7FA"/>
<path transform="translate(1317,43)" d="m0 0 5 1 12 6 8 6 10 9 5 6v2l-4-2-9-10-11-8v-2l-10-3-6-4z" fill="#C9FDFD"/>
<path transform="translate(1030,870)" d="m0 0 2 1-11 10-17 13-19 12-6 2 3-3 19-12 11-8 16-13z" fill="#1B6897"/>
<path transform="translate(129,119)" d="m0 0h2l-1 4-10 14-6 9-3 2 1-5 11-17z" fill="#89FAFC"/>
<path transform="translate(266,662)" d="m0 0 18 1v2l11 1v1l-12-1-11-1-51-1v-1z" fill="#14B0CF"/>
<path transform="translate(424,541)" d="m0 0h1v14l-2 12h-2v8l-1 1-2 15h-1v-10l6-36z" fill="#13B0D1"/>
<path transform="translate(944,923)" d="m0 0 3 1-12 7-22 10-15 6-3-1 8-4 6-1v-2l10-2v-2l7-3 17-8z" fill="#15B7D8"/>
<path transform="translate(205,1115)" d="m0 0 7 6 11 14 12 12-6-2-9-10-5-4-7-10-3-2z" fill="#1783AD"/>
<path transform="translate(412,783)" d="m0 0 3 4 4 11v2h2l3 5 2 7 3 3 1 6 3 1 1 5-3-1-4-9v-2h-2l-8-16-5-12z" fill="#1594BB"/>
<path transform="translate(74,755)" d="m0 0 2 1-5 12-5 16-4 6h-1v-6l10-23z" fill="#12B4D4"/>
<path transform="translate(135,765)" d="m0 0 4 1-18 5-8 11h-2v2l-8 7-2-1 11-12 1-2h2l2-4 4-4z" fill="#8AFAFC"/>
<path transform="translate(1144,123)" d="m0 0h2l-2 5-6 10-9 21-1 3h-2l-1 3-1-3 3-5 9-21z" fill="#13A9CA"/>
<path transform="translate(640,328)" d="m0 0 3 1-11 7-11 6-13 8-3-1 5-4 27-15z" fill="#8AFAFC"/>
<path transform="translate(477 1e3)" d="m0 0 1 4-7 20-5 11h-2l1-5 4-9 7-20z" fill="#15B7D8"/>
<path transform="translate(285,716)" d="m0 0 8 1v2l21 2 9 2v1l-19-1-14-3-15-2v-1z" fill="#93FAFC"/>
<path transform="translate(604,924)" d="m0 0 6 2 26 12 8 3v1l-8-1-5-3-13-5v-2l-7-1-7-4z" fill="#26618C"/>
<path transform="translate(438,832)" d="m0 0 7 7 2 5 9 11 4 4-1 2-10-9-8-11-3-6z" fill="#149CC1"/>
<path transform="translate(372,696)" d="m0 0 5 2 6 8 5 10 8 21-1 3-11-27-6-10z" fill="#1B6897"/>
<path transform="translate(1270,37)" d="m0 0h6l-2 2-21 4-12 4-4-2 17-5z" fill="#C4FCFD"/>
<path transform="translate(399,751)" d="m0 0h2l1 9h2l1 8h2l4 10v2h-2l-1-5h-2l-7-17z" fill="#15A2C5"/>
<path transform="translate(934,244)" d="m0 0 5 1 23 11v2l9 3 4 2v2l-5-1-22-12-14-7z" fill="#13ABCC"/>
<path transform="translate(1156,685)" d="m0 0 1 2-10 25-8 17h-1v-5h2l2-9 1-2h2l3-9 7-18z" fill="#1299BF"/>
<path transform="translate(491,398)" d="m0 0v3l-9 10-11 17-3 5h-2l2-6 7-10 11-14z" fill="#12CEE6"/>
<path transform="translate(1137,350)" d="m0 0 5 5 6 10 2 5h2l2 3-1 4-1-3h-2v-3l-4-2-5-9v-3h-2v-3h-2z" fill="#13B5D4"/>
<path transform="translate(1109,273)" d="m0 0 2 2 2 17 2 7 2 9v7l-2-4-1-8h-2l-3-23z" fill="#1597BC"/>
<path transform="translate(570,903)" d="m0 0 6 2 4 2v2l3 1 4 4 16 8 1 2-6-2-7-4-7-3-3-2v-2l-5-2-6-5z" fill="#216491"/>
<path transform="translate(457,777)" d="m0 0 4 1 5 13 7 10-1 4-7-11-8-15z" fill="#167FAA"/>
<path transform="translate(284,664)" d="m0 0h8l24 4 8 3v2l-9-2-8-2-12-1v-2l-11-1z" fill="#1F6C97"/>
<path transform="translate(1198,148)" d="m0 0 3 1-13 12-15 12-2-1 13-11 4-5 5-4 4-2z" fill="#8AFAFC"/>
<path transform="translate(1253,38)" d="m0 0m-6 1h6l-3 3-19 6h-5l2-1 1-3 5-2v2l12-4z" fill="#1884AD"/>
<path transform="translate(130,694)" d="m0 0 3 2-11 8-10 8-2 1 1-4 9-8z" fill="#178BB2"/>
<path transform="translate(210,665)" d="m0 0h41v1l-34 1-4 1h-13v-1z" fill="#CFFDFE"/>
<path transform="translate(432,513)" d="m0 0 1 3-4 15-3 16h-1v-13l5-19z" fill="#12C0DD"/>
<path transform="translate(545,338)" d="m0 0 3 1-27 27v-3l15-15 7-8z" fill="#12CEE6"/>
<path transform="translate(1441,255)" d="m0 0 9 2 18 9v1l-7-1-20-9z" fill="#51E4F1"/>
<path transform="translate(921,239)" d="m0 0 9 2 4 2v2l6 2 15 8-2 1-21-10-11-5z" fill="#71F8FC"/>
<path transform="translate(1492,280)" d="m0 0 4 1v2l4 1v2l4 2 2 4 4 2 6 7-1 2-14-14-8-6z" fill="#345981"/>
<path transform="translate(1301,97)" d="m0 0 3 1 1 3-15-1-17 2 2-1 1-3z" fill="#ABFCFD"/>
<path transform="translate(187,667)" d="m0 0m-4 1h11l-3 2-16 5-7 1 4-4 10-3z" fill="#1787AF"/>
<path transform="translate(1192,69)" d="m0 0 2 1-25 25v-3l12-13 10-9z" fill="#B5FBFD"/>
<path transform="translate(367,1023)" d="m0 0 3 3-1 26-2 1z" fill="#26E1F1"/>
<path transform="translate(429,697)" d="m0 0 2 3 4 16 4 13-1 3-6-18-3-11z" fill="#13BEDB"/>
<path transform="translate(1365,83)" d="m0 0 4 4 3 6 4 17v5h-2l-4-18-5-12z" fill="#12BBD9"/>
<path transform="translate(1186,71)" d="m0 0 2 1-14 15-7 9-1-3 9-11z" fill="#1884AD"/>
<path transform="translate(289,720)" d="m0 0h6l10 2h2v2l-7 1-11-1-1-3z" fill="#12CEE6"/>
<path transform="translate(1039,860)" d="m0 0 2 1-9 9-11 9-6 5-2-1 5-5h2v-2l14-11z" fill="#1299BF"/>
<path transform="translate(377,702)" d="m0 0 5 5 9 20-1 3-3-3-6-17-4-6z" fill="#12B6D5"/>
<path transform="translate(335,1042)" d="m0 0 2 1 2 8-2 11-2 2z" fill="#3AF5FD"/>
<path transform="translate(687,956)" d="m0 0 7 1 15 4-4 1h-10l-7-3z" fill="#285F8B"/>
<path transform="translate(492,900)" d="m0 0 3 3 1 2v14l-2 14-2 2v-7l3-22h-2z" fill="#1A6C9A"/>
<path transform="translate(539,877)" d="m0 0 7 3 9 8 4 6-4-2-4-3v-2l-6-3v-2l-5-2z" fill="#1979A4"/>
<path transform="translate(460,861)" d="m0 0 5 5 9 11 5 6-1 2-5-4v-3l-4-2-1-3-3-2v-3l-4-2z" fill="#13A6CA"/>
<path transform="translate(1476,272)" d="m0 0 5 2 13 10 11 10-2 1-4-3v-2l-4-2-9-8-10-7z" fill="#12CBE4"/>
<path transform="translate(1126,162)" d="m0 0 1 3-7 24h-1v-8l5-16z" fill="#12BDDA"/>
<path transform="translate(1411,242)" d="m0 0 11 5 5 1v2l9 2v1h-7l-16-7z" fill="#90F4F9"/>
<path transform="translate(858,960)" d="m0 0h9l-4 2-13 4h-6v-2z" fill="#295F8A"/>
<path transform="translate(480 1e3)" d="m0 0h2l-1 7-4 12h-2l-1 5-1-3z" fill="#26618C"/>
<path transform="translate(1257,105)" d="m0 0h6l-3 3-14 7h-3l4-5 7-3 2 1z" fill="#B6FCFD"/>
<path transform="translate(1202,59)" d="m0 0 2 1-5 5-10 8-5 5-2-1 9-10 10-7z" fill="#179CBF"/>
<path transform="translate(106,716)" d="m0 0v3l-10 10-5 8h-3l1-4 4-2 2-4z" fill="#98F7FB"/>
<path transform="translate(1256,523)" d="m0 0 11 3 8 3v2l-10-2-9-4z" fill="#1586AF"/>
<path transform="translate(1468,267)" d="m0 0 5 2 8 7 4 3-1 2-6-4-10-7z" fill="#6EEFF7"/>
<path transform="translate(178,744)" d="m0 0h6l-4 3-12 7-2-1 5-5z" fill="#B7FCFD"/>
<path transform="translate(1386,227)" d="m0 0 7 1 1 2-7 1-2 5-1 6h-2v-7l3-7z" fill="#97F6FA"/>
<path transform="translate(342,681)" d="m0 0 5 1 15 8v1h-6l-7-4-3-3z" fill="#42DFEF"/>
<path transform="translate(1162,672)" d="m0 0h1l-1 8-5 16-1 3h-2l1-6 5-14z" fill="#345981"/>
<path transform="translate(439,735)" d="m0 0 2 1v3h2l5 14 1 1v7l-2-2-6-18z" fill="#1599BF"/>
<path transform="translate(1384,272)" d="m0 0 3 1 7 8 15 8-3 1-13-7-9-9z" fill="#88FBFC"/>
<path transform="translate(1504,295)" d="m0 0 4 2 12 12-3 1-10-10v-2l-3-1z" fill="#12B6D5"/>
<path transform="translate(641,942)" d="m0 0h6l13 5-2 2-5-1-12-5z" fill="#295F8A"/>
<path transform="translate(224,722)" d="m0 0m-2 1 6 1v1l-13 4-5 1 2-4z" fill="#B8FDFE"/>
<path transform="translate(245,719)" d="m0 0h8v1l-18 3-7 1 1-3 2-1z" fill="#A5FCFD"/>
<path transform="translate(1064,257)" d="m0 0h1l1 6v15h-3z" fill="#38A2C0"/>
<path transform="translate(878,948)" d="m0 0 4 1-8 4-7 1v-2l-2-1 10-2z" fill="#12CEE6"/>
<path transform="translate(909,943)" d="m0 0 3 1-13 5-2 2h-6l2-2h3v-2l8-3z" fill="#1B739F"/>
<path transform="translate(66,776)" d="m0 0 1 4-3 8-3 2v-6l3-7z" fill="#12BAD8"/>
<path transform="translate(874,231)" d="m0 0 16 1 6 1v1h-20v-2z" fill="#AAFBFC"/>
<path transform="translate(837,342)" d="m0 0h7l4 1 17 1v1h-24z" fill="#C6FDFE"/>
<path transform="translate(1518,310)" d="m0 0 4 1 10 12-1 2-12-12z" fill="#12ABCD"/>
<path transform="translate(269,714)" d="m0 0m-7 1h7l5 1v1l-13 2h-8v-1z" fill="#AFFBFD"/>
<path transform="translate(619,340)" d="m0 0 4 1-15 9-3-1 5-4z" fill="#87FBFC"/>
<path transform="translate(993,275)" d="m0 0 7 2 7 6 3 3-6-1-3-2v-3l-5-2z" fill="#40C6DD"/>
<path transform="translate(1215,134)" d="m0 0 3 1-13 11-4 2 6-8z" fill="#A1FBFC"/>
<path transform="translate(1289,37)" d="m0 0 13 1 9 2-3 2h-2v-2h-12l-5-2z" fill="#BEFCFD"/>
<path transform="translate(527,865)" d="m0 0 4 2 12 11h-3l-5-3-8-9z" fill="#148CB4"/>
<path transform="translate(1317,43)" d="m0 0 5 1 12 6 3 3h-4v-2l-10-3-6-4z" fill="#BAFCFD"/>
<path transform="translate(264,1161)" d="m0 0 8 1 12 2v2l-13-1v-2l-7-1z" fill="#1587B0"/>
<path transform="translate(468,1039)" d="m0 0 1 2-7 16-3 2 1-4z" fill="#345981"/>
<path transform="translate(1118,181)" d="m0 0h1v12l-2 4-2-2 1-8z" fill="#1694BA"/>
<path transform="translate(1144,123)" d="m0 0h2l-2 5-6 10-1 3-3 1 2-6z" fill="#178BB2"/>
<path transform="translate(822,333)" d="m0 0 6 2 7 4v2l2 1-5-1-9-6z" fill="#B0FCFD"/>
<path transform="translate(1439,253)" d="m0 0h7l7 3 1 3-10-3-5-2z" fill="#295F8A"/>
<path transform="translate(472,1025)" d="m0 0h1v6l-3 8-3 1 1-6z" fill="#27608C"/>
<path transform="translate(1081,816)" d="m0 0 3 1-11 14-4 3 2-4 8-10z" fill="#196D9B"/>
<path transform="translate(213,662)" d="m0 0h10l-4 3-13 1 3-2z" fill="#178DB4"/>
<path transform="translate(967,323)" d="m0 0 6 1 2 1v2l5 1 2 1v2l3 1-2 1-16-9z" fill="#9AFBFD"/>
<path transform="translate(811,320)" d="m0 0h3l6 10 2 3-4-2-7-9z" fill="#A7FCFD"/>
<path transform="translate(1169,173)" d="m0 0 2 1-4 4h-2v2l-6 5-3-1 5-5z" fill="#87FBFC"/>
<path transform="translate(1198,148)" d="m0 0 3 1-9 8-5 3-2-1 8-7 4-2z" fill="#A2FCFD"/>
<path transform="translate(1526,320)" d="m0 0 3 1 6 7 1 4h-3l-7-11z" fill="#13B7D6"/>
<path transform="translate(601,293)" d="m0 0 2 1-4 4-6 4-5 3-2-1 5-4 5-3h2v-2z" fill="#81EFF6"/>
<path transform="translate(112,778)" d="m0 0 1 4h-2v2l-8 7-2-1z" fill="#86FBFC"/>
<path transform="translate(120,701)" d="m0 0m-1 1 1 2-5 5-5 4 1-4z" fill="#1883AC"/>
<path transform="translate(799,273)" d="m0 0h5l-4 2-5 2h-10l4-2z" fill="#8CF9FB"/>
<path transform="translate(235,1147)" d="m0 0 5 2 11 6-3 1-9-4z" fill="#148DB5"/>
<path transform="translate(570,903)" d="m0 0 6 2 4 2v2l3 1-4 1-9-7z" fill="#167FAA"/>
<path transform="translate(347,722)" d="m0 0 2 1-2 3-7 1-11-1v-1l14-1z" fill="#89FAFC"/>
<path transform="translate(427,813)" d="m0 0 3 4v4l3 1 1 5-3-1-4-9z" fill="#168DB5"/>
<path transform="translate(399,751)" d="m0 0h2l1 9h2l1 5-2-1v-3l-3-1-1-2z" fill="#1596BC"/>
<path transform="translate(1544,380)" d="m0 0h1v9l-1 6-3-6z" fill="#13C2DF"/>
<path transform="translate(1130,342)" d="m0 0 4 1 3 4v6l-2-1-2-5-3-3z" fill="#14ADCE"/>
<path transform="translate(975,265)" d="m0 0 6 2 7 3v2l5 2-2 1-16-9z" fill="#13B0D0"/>
<path transform="translate(1235,40)" d="m0 0m-1 1m-1 1 2 4-4 2h-5l2-1 1-3z" fill="#227099"/>
<path transform="translate(420,800)" d="m0 0 4 5 2 7 1 3h-2l-5-11z" fill="#1692B9"/>
<path transform="translate(149,758)" d="m0 0m-1 1h8l-2 2-11 4-4-1 6-2z" fill="#A0FBFC"/>
<path transform="translate(91,729)" d="m0 0v3l-4 6h-2l-1 4-3 1 2-4 4-6z" fill="#1977A3"/>
<path transform="translate(1244,519)" d="m0 0 12 4v2l-9-2-6-2z" fill="#1681AB"/>
<path transform="translate(1404,234)" d="m0 0 6 5 5 2 1 3-5-2-9-6z" fill="#1D87AC"/>
<path transform="translate(116,137)" d="m0 0 2 4-6 7-1-3z" fill="#A6F9FC"/>
<path transform="translate(455,445)" d="m0 0 1 2-7 14-1-4 1-3h2l2-5z" fill="#345981"/>
<path transform="translate(1137,350)" d="m0 0 5 5 3 5v2l-4-2v-3h-2v-3h-2z" fill="#12C3DE"/>
<path transform="translate(921,239)" d="m0 0 9 2 4 3h-6l-7-3z" fill="#48D4E6"/>
<path transform="translate(460,861)" d="m0 0 5 5 5 6-1 2-4-3v-3l-4-2z" fill="#13A4C8"/>
<path transform="translate(457,777)" d="m0 0 4 1 2 4v3h-3l-3-6z" fill="#1596BD"/>
<path transform="translate(1143,713)" d="m0 0h1l-1 7-4 9h-1v-5h2l2-9z" fill="#13A6CA"/>
<path transform="translate(187,667)" d="m0 0m-4 1h11l-3 2-10 2z" fill="#169ABE"/>
<path transform="translate(545,338)" d="m0 0 3 1-8 8-3-1z" fill="#188AB1"/>
<path transform="translate(1456,261)" d="m0 0 6 2 6 3v1l-7-1-6-3z" fill="#57E5F1"/>
<path transform="translate(629,936)" d="m0 0 5 1 10 4v1l-8-1-7-4z" fill="#24628E"/>
<path transform="translate(203,730)" d="m0 0m-2 1 4 2-8 4h-2l2-4z" fill="#C2FCFD"/>
<path transform="translate(362,691)" d="m0 0 5 2 8 6 1 2-4-2-4-3-5-2z" fill="#22D5E9"/>
<path transform="translate(581,1047)" d="m0 0h2l1 4h-3l-1-2z" fill="#56CFE1"/>
<path transform="translate(1219,630)" d="m0 0h3v2h-3z" fill="#BEFFFF"/>
</svg>
